M48
; DRILL file {KiCad 8.0.6} date 2024-11-02T03:10:23+0300
; FORMAT={-:-/ absolute / inch / decimal}
; #@! TF.CreationDate,2024-11-02T03:10:23+03:00
; #@! TF.GenerationSoftware,Kicad,Pcbnew,8.0.6
; #@! TF.FileFunction,Plated,1,2,PTH
FMAT,2
INCH
; #@! TA.AperFunction,Plated,PTH,ComponentDrill
T1C0.0276
; #@! TA.AperFunction,Plated,PTH,ComponentDrill
T2C0.0315
; #@! TA.AperFunction,Plated,PTH,ComponentDrill
T3C0.0354
; #@! TA.AperFunction,Plated,PTH,ComponentDrill
T4C0.0394
; #@! TA.AperFunction,Plated,PTH,ComponentDrill
T5C0.0433
; #@! TA.AperFunction,Plated,PTH,ComponentDrill
T6C0.0630
; #@! TA.AperFunction,Plated,PTH,ComponentDrill
T7C0.0689
%
G90
G05
T1
X5.7252Y-2.7165
X5.7252Y-2.874
X5.7252Y-3.189
X5.7268Y-3.0315
X5.9252Y-2.7165
X5.9252Y-2.874
X5.9252Y-3.189
X5.9268Y-3.0315
X6.0811Y-2.7165
X6.0811Y-2.874
X6.0811Y-3.0315
X6.2811Y-2.7165
X6.2811Y-2.874
X6.2811Y-3.0315
X7.2835Y-2.7331
X7.2835Y-2.9331
X7.2835Y-3.0315
X7.2835Y-3.2315
X7.2835Y-3.3268
X7.2835Y-3.5268
T2
X5.1575Y-3.4843
X5.2953Y-2.6378
X5.2953Y-3.4843
X5.4331Y-2.6378
X5.5315Y-3.4843
X5.6693Y-3.4843
X5.6988Y-2.5394
X5.7972Y-2.5394
X5.9154Y-2.5394
X6.0138Y-2.5394
X6.0236Y-3.189
X6.122Y-3.189
X6.2303Y-3.189
X6.3287Y-3.189
X6.4323Y-2.8346
X6.4323Y-2.9346
X6.4323Y-3.0346
X6.4323Y-3.1346
X6.7323Y-2.8346
X6.7323Y-2.9346
X6.7323Y-3.0346
X6.7323Y-3.1346
X6.8488Y-2.8346
X6.8488Y-2.9346
X6.8488Y-3.0346
X6.8488Y-3.1346
X7.1488Y-2.8346
X7.1488Y-2.9346
X7.1488Y-3.0346
X7.1488Y-3.1346
X7.4311Y-3.5039
X7.5295Y-3.5039
T3
X7.4394Y-2.8346
X7.4394Y-3.0906
X7.4394Y-3.3465
X7.5394Y-2.8346
X7.5394Y-3.0906
X7.5394Y-3.3465
T4
X5.8268Y-3.3661
X6.4268Y-3.3661
X6.5654Y-3.3661
X7.1654Y-3.3661
T5
X6.5551Y-2.5984
X6.9551Y-2.5984
X7.1425Y-2.5984
X7.5425Y-2.5984
T6
X5.3543Y-3.0512
X5.4724Y-3.2362
X5.5906Y-3.0512
T7
X7.7953Y-2.815
X7.7953Y-3.015
X7.7953Y-3.215
X7.7953Y-3.415
M30
