%TF.GenerationSoftware,KiCad,Pcbnew,8.0.6*%
%TF.CreationDate,2024-11-02T03:13:20+03:00*%
%TF.ProjectId,kicad,6b696361-642e-46b6-9963-61645f706362,rev?*%
%TF.SameCoordinates,Original*%
%TF.FileFunction,Soldermask,Top*%
%TF.FilePolarity,Negative*%
%FSLAX46Y46*%
G04 Gerber Fmt 4.6, Leading zero omitted, Abs format (unit mm)*
G04 Created by KiCad (PCBNEW 8.0.6) date 2024-11-02 03:13:20*
%MOMM*%
%LPD*%
G01*
G04 APERTURE LIST*
%ADD10R,1.800000X1.800000*%
%ADD11C,1.800000*%
%ADD12R,1.600000X1.600000*%
%ADD13C,1.600000*%
%ADD14O,1.600000X1.600000*%
%ADD15C,1.400000*%
%ADD16O,1.400000X1.400000*%
%ADD17R,2.600000X2.600000*%
%ADD18C,2.600000*%
%ADD19R,2.800000X2.800000*%
%ADD20C,2.800000*%
%ADD21R,2.200000X2.200000*%
%ADD22O,2.200000X2.200000*%
%ADD23C,2.000000*%
%ADD24O,2.000000X2.000000*%
G04 APERTURE END LIST*
D10*
%TO.C,D5*%
X188960000Y-72000000D03*
D11*
X191500000Y-72000000D03*
%TD*%
D12*
%TO.C,C5*%
X134500000Y-67000000D03*
D13*
X138000000Y-67000000D03*
%TD*%
D12*
%TO.C,U2*%
X181580000Y-79620000D03*
D14*
X181580000Y-77080000D03*
X181580000Y-74540000D03*
X181580000Y-72000000D03*
X173960000Y-72000000D03*
X173960000Y-74540000D03*
X173960000Y-77080000D03*
X173960000Y-79620000D03*
%TD*%
D15*
%TO.C,R10*%
X185000000Y-74500000D03*
D16*
X185000000Y-69420000D03*
%TD*%
D13*
%TO.C,C2*%
X144750000Y-64500000D03*
X147250000Y-64500000D03*
%TD*%
D15*
%TO.C,R4*%
X185000000Y-77000000D03*
D16*
X185000000Y-82080000D03*
%TD*%
D15*
%TO.C,R5*%
X185000000Y-84500000D03*
D16*
X185000000Y-89580000D03*
%TD*%
D12*
%TO.C,U1*%
X163380000Y-72000000D03*
D14*
X163380000Y-74540000D03*
X163380000Y-77080000D03*
X163380000Y-79620000D03*
X171000000Y-79620000D03*
X171000000Y-77080000D03*
X171000000Y-74540000D03*
X171000000Y-72000000D03*
%TD*%
D15*
%TO.C,R7*%
X145420000Y-81000000D03*
D16*
X150500000Y-81000000D03*
%TD*%
D15*
%TO.C,R3*%
X154460000Y-77000000D03*
D16*
X159540000Y-77000000D03*
%TD*%
D10*
%TO.C,D3*%
X188960000Y-85000000D03*
D11*
X191500000Y-85000000D03*
%TD*%
D15*
%TO.C,R9*%
X150500000Y-73000000D03*
D16*
X145420000Y-73000000D03*
%TD*%
D10*
%TO.C,D2*%
X188960000Y-78500000D03*
D11*
X191500000Y-78500000D03*
%TD*%
D17*
%TO.C,J3*%
X142000000Y-77500000D03*
D18*
X136000000Y-77500000D03*
X139000000Y-82200000D03*
%TD*%
D15*
%TO.C,R2*%
X154460000Y-73000000D03*
D16*
X159540000Y-73000000D03*
%TD*%
D12*
%TO.C,C1*%
X131000000Y-88500000D03*
D13*
X134500000Y-88500000D03*
%TD*%
%TO.C,C7*%
X153000000Y-81000000D03*
X155500000Y-81000000D03*
%TD*%
D15*
%TO.C,R6*%
X145460000Y-77000000D03*
D16*
X150540000Y-77000000D03*
%TD*%
D19*
%TO.C,J1*%
X198000000Y-71500000D03*
D20*
X198000000Y-76580000D03*
X198000000Y-81660000D03*
X198000000Y-86740000D03*
%TD*%
D13*
%TO.C,C3*%
X152750000Y-64500000D03*
X150250000Y-64500000D03*
%TD*%
D21*
%TO.C,D4*%
X191580000Y-66000000D03*
D22*
X181420000Y-66000000D03*
%TD*%
D23*
%TO.C,L2*%
X166760000Y-85500000D03*
D24*
X182000000Y-85500000D03*
%TD*%
D15*
%TO.C,R8*%
X145420000Y-69000000D03*
D16*
X150500000Y-69000000D03*
%TD*%
D21*
%TO.C,D1*%
X166500000Y-66000000D03*
D22*
X176660000Y-66000000D03*
%TD*%
D12*
%TO.C,C8*%
X144000000Y-88500000D03*
D13*
X140500000Y-88500000D03*
%TD*%
D23*
%TO.C,L1*%
X148000000Y-85500000D03*
D24*
X163240000Y-85500000D03*
%TD*%
D13*
%TO.C,C4*%
X158250000Y-81000000D03*
X160750000Y-81000000D03*
%TD*%
D15*
%TO.C,R1*%
X159540000Y-69000000D03*
D16*
X154460000Y-69000000D03*
%TD*%
D13*
%TO.C,C6*%
X188750000Y-89000000D03*
X191250000Y-89000000D03*
%TD*%
M02*
