%TF.GenerationSoftware,KiCad,Pcbnew,8.0.6*%
%TF.CreationDate,2024-11-02T03:13:20+03:00*%
%TF.ProjectId,kicad,6b696361-642e-46b6-9963-61645f706362,rev?*%
%TF.SameCoordinates,Original*%
%TF.FileFunction,Copper,L2,Bot*%
%TF.FilePolarity,Positive*%
%FSLAX46Y46*%
G04 Gerber Fmt 4.6, Leading zero omitted, Abs format (unit mm)*
G04 Created by KiCad (PCBNEW 8.0.6) date 2024-11-02 03:13:20*
%MOMM*%
%LPD*%
G01*
G04 APERTURE LIST*
%TA.AperFunction,ComponentPad*%
%ADD10R,1.800000X1.800000*%
%TD*%
%TA.AperFunction,ComponentPad*%
%ADD11C,1.800000*%
%TD*%
%TA.AperFunction,ComponentPad*%
%ADD12R,1.600000X1.600000*%
%TD*%
%TA.AperFunction,ComponentPad*%
%ADD13C,1.600000*%
%TD*%
%TA.AperFunction,ComponentPad*%
%ADD14O,1.600000X1.600000*%
%TD*%
%TA.AperFunction,ComponentPad*%
%ADD15C,1.400000*%
%TD*%
%TA.AperFunction,ComponentPad*%
%ADD16O,1.400000X1.400000*%
%TD*%
%TA.AperFunction,ComponentPad*%
%ADD17R,2.600000X2.600000*%
%TD*%
%TA.AperFunction,ComponentPad*%
%ADD18C,2.600000*%
%TD*%
%TA.AperFunction,ComponentPad*%
%ADD19R,2.800000X2.800000*%
%TD*%
%TA.AperFunction,ComponentPad*%
%ADD20C,2.800000*%
%TD*%
%TA.AperFunction,ComponentPad*%
%ADD21R,2.200000X2.200000*%
%TD*%
%TA.AperFunction,ComponentPad*%
%ADD22O,2.200000X2.200000*%
%TD*%
%TA.AperFunction,ComponentPad*%
%ADD23C,2.000000*%
%TD*%
%TA.AperFunction,ComponentPad*%
%ADD24O,2.000000X2.000000*%
%TD*%
%TA.AperFunction,Conductor*%
%ADD25C,0.200000*%
%TD*%
G04 APERTURE END LIST*
D10*
%TO.P,D5,1,K*%
%TO.N,GND*%
X188960000Y-72000000D03*
D11*
%TO.P,D5,2,A*%
%TO.N,Net-(D5-A)*%
X191500000Y-72000000D03*
%TD*%
D12*
%TO.P,C5,1*%
%TO.N,GND*%
X134500000Y-67000000D03*
D13*
%TO.P,C5,2*%
%TO.N,-5V*%
X138000000Y-67000000D03*
%TD*%
D12*
%TO.P,U2,1,SwC*%
%TO.N,Net-(D4-A)*%
X181580000Y-79620000D03*
D14*
%TO.P,U2,2,SwE*%
%TO.N,GND*%
X181580000Y-77080000D03*
%TO.P,U2,3,TC*%
%TO.N,Net-(U2-TC)*%
X181580000Y-74540000D03*
%TO.P,U2,4,GND*%
%TO.N,GND*%
X181580000Y-72000000D03*
%TO.P,U2,5,Vfb*%
%TO.N,Net-(U2-Vfb)*%
X173960000Y-72000000D03*
%TO.P,U2,6,Vin*%
%TO.N,+5V*%
X173960000Y-74540000D03*
%TO.P,U2,7,Ipk*%
%TO.N,Net-(U2-Ipk)*%
X173960000Y-77080000D03*
%TO.P,U2,8,DC*%
%TO.N,Net-(U2-DC)*%
X173960000Y-79620000D03*
%TD*%
D15*
%TO.P,R10,1*%
%TO.N,+12V*%
X185000000Y-74500000D03*
D16*
%TO.P,R10,2*%
%TO.N,Net-(D5-A)*%
X185000000Y-69420000D03*
%TD*%
D13*
%TO.P,C2,1*%
%TO.N,Net-(U1-TC)*%
X144750000Y-64500000D03*
%TO.P,C2,2*%
%TO.N,-5V*%
X147250000Y-64500000D03*
%TD*%
D15*
%TO.P,R4,1*%
%TO.N,-5V*%
X185000000Y-77000000D03*
D16*
%TO.P,R4,2*%
%TO.N,Net-(D2-K)*%
X185000000Y-82080000D03*
%TD*%
D15*
%TO.P,R5,1*%
%TO.N,+5V*%
X185000000Y-84500000D03*
D16*
%TO.P,R5,2*%
%TO.N,Net-(D3-A)*%
X185000000Y-89580000D03*
%TD*%
D12*
%TO.P,U1,1,SwC*%
%TO.N,Net-(U1-DC)*%
X163380000Y-72000000D03*
D14*
%TO.P,U1,2,SwE*%
%TO.N,Net-(D1-K)*%
X163380000Y-74540000D03*
%TO.P,U1,3,TC*%
%TO.N,Net-(U1-TC)*%
X163380000Y-77080000D03*
%TO.P,U1,4,GND*%
%TO.N,-5V*%
X163380000Y-79620000D03*
%TO.P,U1,5,Vfb*%
%TO.N,Net-(U1-Vfb)*%
X171000000Y-79620000D03*
%TO.P,U1,6,Vin*%
%TO.N,+5V*%
X171000000Y-77080000D03*
%TO.P,U1,7,Ipk*%
%TO.N,Net-(U1-DC)*%
X171000000Y-74540000D03*
%TO.P,U1,8,DC*%
X171000000Y-72000000D03*
%TD*%
D15*
%TO.P,R7,1*%
%TO.N,+5V*%
X145420000Y-81000000D03*
D16*
%TO.P,R7,2*%
%TO.N,Net-(U2-Ipk)*%
X150500000Y-81000000D03*
%TD*%
D15*
%TO.P,R3,1*%
%TO.N,-5V*%
X154460000Y-77000000D03*
D16*
%TO.P,R3,2*%
%TO.N,Net-(U1-Vfb)*%
X159540000Y-77000000D03*
%TD*%
D10*
%TO.P,D3,1,K*%
%TO.N,GND*%
X188960000Y-85000000D03*
D11*
%TO.P,D3,2,A*%
%TO.N,Net-(D3-A)*%
X191500000Y-85000000D03*
%TD*%
D15*
%TO.P,R9,1*%
%TO.N,Net-(U2-Vfb)*%
X150500000Y-73000000D03*
D16*
%TO.P,R9,2*%
%TO.N,+12V*%
X145420000Y-73000000D03*
%TD*%
D10*
%TO.P,D2,1,K*%
%TO.N,Net-(D2-K)*%
X188960000Y-78500000D03*
D11*
%TO.P,D2,2,A*%
%TO.N,GND*%
X191500000Y-78500000D03*
%TD*%
D17*
%TO.P,J3,1*%
%TO.N,+5V*%
X142000000Y-77500000D03*
D18*
%TO.P,J3,2*%
%TO.N,GND*%
X136000000Y-77500000D03*
%TO.P,J3,3*%
%TO.N,N/C*%
X139000000Y-82200000D03*
%TD*%
D15*
%TO.P,R2,1*%
%TO.N,-5V*%
X154460000Y-73000000D03*
D16*
%TO.P,R2,2*%
%TO.N,Net-(U1-Vfb)*%
X159540000Y-73000000D03*
%TD*%
D12*
%TO.P,C1,1*%
%TO.N,+5V*%
X131000000Y-88500000D03*
D13*
%TO.P,C1,2*%
%TO.N,GND*%
X134500000Y-88500000D03*
%TD*%
%TO.P,C7,1*%
%TO.N,GND*%
X153000000Y-81000000D03*
%TO.P,C7,2*%
%TO.N,+12V*%
X155500000Y-81000000D03*
%TD*%
D15*
%TO.P,R6,1*%
%TO.N,Net-(U2-DC)*%
X145460000Y-77000000D03*
D16*
%TO.P,R6,2*%
%TO.N,Net-(U2-Ipk)*%
X150540000Y-77000000D03*
%TD*%
D19*
%TO.P,J1,1,Pin_1*%
%TO.N,+12V*%
X198000000Y-71500000D03*
D20*
%TO.P,J1,2,Pin_2*%
%TO.N,-5V*%
X198000000Y-76580000D03*
%TO.P,J1,3,Pin_3*%
%TO.N,+5V*%
X198000000Y-81660000D03*
%TO.P,J1,4,Pin_4*%
%TO.N,GND*%
X198000000Y-86740000D03*
%TD*%
D13*
%TO.P,C3,1*%
%TO.N,+5V*%
X152750000Y-64500000D03*
%TO.P,C3,2*%
%TO.N,GND*%
X150250000Y-64500000D03*
%TD*%
D21*
%TO.P,D4,1,K*%
%TO.N,+12V*%
X191580000Y-66000000D03*
D22*
%TO.P,D4,2,A*%
%TO.N,Net-(D4-A)*%
X181420000Y-66000000D03*
%TD*%
D23*
%TO.P,L2,1,1*%
%TO.N,Net-(U2-Ipk)*%
X166760000Y-85500000D03*
D24*
%TO.P,L2,2,2*%
%TO.N,Net-(D4-A)*%
X182000000Y-85500000D03*
%TD*%
D15*
%TO.P,R8,1*%
%TO.N,GND*%
X145420000Y-69000000D03*
D16*
%TO.P,R8,2*%
%TO.N,Net-(U2-Vfb)*%
X150500000Y-69000000D03*
%TD*%
D21*
%TO.P,D1,1,K*%
%TO.N,Net-(D1-K)*%
X166500000Y-66000000D03*
D22*
%TO.P,D1,2,A*%
%TO.N,-5V*%
X176660000Y-66000000D03*
%TD*%
D12*
%TO.P,C8,1*%
%TO.N,+12V*%
X144000000Y-88500000D03*
D13*
%TO.P,C8,2*%
%TO.N,GND*%
X140500000Y-88500000D03*
%TD*%
D23*
%TO.P,L1,1,1*%
%TO.N,Net-(D1-K)*%
X148000000Y-85500000D03*
D24*
%TO.P,L1,2,2*%
%TO.N,GND*%
X163240000Y-85500000D03*
%TD*%
D13*
%TO.P,C4,1*%
%TO.N,GND*%
X158250000Y-81000000D03*
%TO.P,C4,2*%
%TO.N,-5V*%
X160750000Y-81000000D03*
%TD*%
D15*
%TO.P,R1,1*%
%TO.N,Net-(U1-DC)*%
X159540000Y-69000000D03*
D16*
%TO.P,R1,2*%
%TO.N,+5V*%
X154460000Y-69000000D03*
%TD*%
D13*
%TO.P,C6,1*%
%TO.N,Net-(U2-TC)*%
X188750000Y-89000000D03*
%TO.P,C6,2*%
%TO.N,GND*%
X191250000Y-89000000D03*
%TD*%
D25*
%TO.N,+5V*%
X140398300Y-77500000D02*
X131000000Y-86898300D01*
X142000000Y-77500000D02*
X140398300Y-77500000D01*
X179980700Y-85397300D02*
X179980700Y-81290600D01*
X185000000Y-84500000D02*
X182695800Y-86804200D01*
X153207200Y-72838400D02*
X153207200Y-71254500D01*
X154460000Y-66210000D02*
X154460000Y-69000000D01*
X154460000Y-69000000D02*
X154460000Y-70001700D01*
X145420000Y-80625600D02*
X153207200Y-72838400D01*
X179980700Y-81290600D02*
X173960000Y-75269900D01*
X145420000Y-81000000D02*
X145420000Y-80625600D01*
X181387600Y-86804200D02*
X179980700Y-85397300D01*
X153207200Y-71254500D02*
X154460000Y-70001700D01*
X173960000Y-75269900D02*
X173911800Y-75269900D01*
X182695800Y-86804200D02*
X181387600Y-86804200D01*
X173960000Y-74540000D02*
X173960000Y-75090800D01*
X173911800Y-75269900D02*
X172101700Y-77080000D01*
X131000000Y-86898300D02*
X131000000Y-88500000D01*
X173960000Y-75090800D02*
X173960000Y-75269900D01*
X171000000Y-77080000D02*
X172101700Y-77080000D01*
X152750000Y-64500000D02*
X154460000Y-66210000D01*
%TO.N,Net-(U1-TC)*%
X162278300Y-75014400D02*
X162278300Y-74304100D01*
X163380000Y-75978300D02*
X163242200Y-75978300D01*
X163380000Y-77080000D02*
X163380000Y-75978300D01*
X163242200Y-75978300D02*
X162278300Y-75014400D01*
X156899000Y-66448700D02*
X153371000Y-62920700D01*
X153371000Y-62920700D02*
X146329300Y-62920700D01*
X146329300Y-62920700D02*
X144750000Y-64500000D01*
X156899000Y-68924800D02*
X156899000Y-66448700D01*
X162278300Y-74304100D02*
X156899000Y-68924800D01*
%TO.N,-5V*%
X181284700Y-73270000D02*
X181870300Y-73270000D01*
X155495300Y-65651700D02*
X155495300Y-71964700D01*
X198000000Y-76580000D02*
X185000000Y-76580000D01*
X181870300Y-73270000D02*
X185000000Y-76399700D01*
X156750000Y-77000000D02*
X160750000Y-81000000D01*
X176660000Y-68645300D02*
X181284700Y-73270000D01*
X154460000Y-77000000D02*
X156750000Y-77000000D01*
X185000000Y-76399700D02*
X185000000Y-76580000D01*
X147250000Y-64500000D02*
X148365600Y-63384400D01*
X176660000Y-66000000D02*
X176660000Y-68645300D01*
X163380000Y-79620000D02*
X162278300Y-79620000D01*
X185000000Y-76580000D02*
X185000000Y-77000000D01*
X172770500Y-68645300D02*
X164819800Y-76596000D01*
X153228000Y-63384400D02*
X155495300Y-65651700D01*
X176660000Y-68645300D02*
X172770500Y-68645300D01*
X147250000Y-64500000D02*
X144750000Y-67000000D01*
X160898300Y-81000000D02*
X160750000Y-81000000D01*
X155495300Y-71964700D02*
X154460000Y-73000000D01*
X144750000Y-67000000D02*
X138000000Y-67000000D01*
X164819800Y-77306800D02*
X163608300Y-78518300D01*
X154460000Y-77000000D02*
X154460000Y-73000000D01*
X162278300Y-79620000D02*
X160898300Y-81000000D01*
X163608300Y-78518300D02*
X163380000Y-78518300D01*
X163380000Y-79620000D02*
X163380000Y-78518300D01*
X148365600Y-63384400D02*
X153228000Y-63384400D01*
X164819800Y-76596000D02*
X164819800Y-77306800D01*
%TO.N,Net-(U2-TC)*%
X187758300Y-85813000D02*
X185235300Y-83290000D01*
X187758300Y-88008300D02*
X187758300Y-85813000D01*
X181580000Y-74540000D02*
X181580000Y-75641700D01*
X182681700Y-81199700D02*
X182681700Y-76515100D01*
X182681700Y-76515100D02*
X181808300Y-75641700D01*
X185235300Y-83290000D02*
X184772000Y-83290000D01*
X181808300Y-75641700D02*
X181580000Y-75641700D01*
X184772000Y-83290000D02*
X182681700Y-81199700D01*
X188750000Y-89000000D02*
X187758300Y-88008300D01*
%TO.N,+12V*%
X192200000Y-67401700D02*
X191580000Y-67401700D01*
X153244800Y-83255200D02*
X155500000Y-81000000D01*
X145420000Y-73000000D02*
X145420000Y-74001700D01*
X144408800Y-82214000D02*
X144408800Y-75012900D01*
X144408800Y-75012900D02*
X145420000Y-74001700D01*
X196298300Y-71500000D02*
X192200000Y-67401700D01*
X145450000Y-83255200D02*
X144408800Y-82214000D01*
X145450000Y-83255200D02*
X153244800Y-83255200D01*
X198000000Y-71500000D02*
X196298300Y-71500000D01*
X144000000Y-88500000D02*
X144000000Y-87398300D01*
X145450000Y-85948300D02*
X145450000Y-83255200D01*
X144000000Y-87398300D02*
X145450000Y-85948300D01*
X191580000Y-66000000D02*
X191580000Y-67401700D01*
%TO.N,Net-(D1-K)*%
X166500000Y-70936200D02*
X163997900Y-73438300D01*
X163380000Y-74540000D02*
X163380000Y-73438300D01*
X166500000Y-66000000D02*
X166500000Y-70936200D01*
X163997900Y-73438300D02*
X163380000Y-73438300D01*
%TO.N,Net-(D2-K)*%
X188960000Y-78500000D02*
X188960000Y-79701700D01*
X185000000Y-82080000D02*
X186001700Y-82080000D01*
X186001700Y-82080000D02*
X188380000Y-79701700D01*
X188380000Y-79701700D02*
X188960000Y-79701700D01*
%TO.N,Net-(D4-A)*%
X181580000Y-83778300D02*
X181580000Y-79620000D01*
X182000000Y-85500000D02*
X182000000Y-84198300D01*
X182000000Y-84198300D02*
X181580000Y-83778300D01*
%TO.N,Net-(D5-A)*%
X185000000Y-69420000D02*
X188920000Y-69420000D01*
X188920000Y-69420000D02*
X191500000Y-72000000D01*
%TO.N,Net-(U2-Ipk)*%
X150540000Y-77000000D02*
X150540000Y-78001700D01*
X172520200Y-79739800D02*
X172520200Y-79393200D01*
X172520200Y-79393200D02*
X173731700Y-78181700D01*
X166760000Y-85500000D02*
X172520200Y-79739800D01*
X173960000Y-77080000D02*
X173960000Y-78181700D01*
X150500000Y-78041700D02*
X150540000Y-78001700D01*
X150500000Y-81000000D02*
X150500000Y-78041700D01*
X173731700Y-78181700D02*
X173960000Y-78181700D01*
%TO.N,Net-(U1-DC)*%
X159540000Y-69000000D02*
X162278300Y-71738300D01*
X163380000Y-72000000D02*
X162278300Y-72000000D01*
X171000000Y-72000000D02*
X171000000Y-74540000D01*
X162278300Y-71738300D02*
X162278300Y-72000000D01*
%TO.N,Net-(U1-Vfb)*%
X159540000Y-73000000D02*
X159540000Y-77000000D01*
%TD*%
%TA.AperFunction,Conductor*%
%TO.N,GND*%
G36*
X145667941Y-62520185D02*
G01*
X145713696Y-62572989D01*
X145723640Y-62642147D01*
X145694615Y-62705703D01*
X145688583Y-62712181D01*
X145192705Y-63208058D01*
X145131382Y-63241543D01*
X145072931Y-63240152D01*
X144976697Y-63214366D01*
X144976693Y-63214365D01*
X144976692Y-63214365D01*
X144976691Y-63214364D01*
X144976686Y-63214364D01*
X144750002Y-63194532D01*
X144749998Y-63194532D01*
X144523313Y-63214364D01*
X144523302Y-63214366D01*
X144303511Y-63273258D01*
X144303502Y-63273261D01*
X144097267Y-63369431D01*
X144097265Y-63369432D01*
X143910858Y-63499954D01*
X143749954Y-63660858D01*
X143619432Y-63847265D01*
X143619431Y-63847267D01*
X143523261Y-64053502D01*
X143523258Y-64053511D01*
X143464366Y-64273302D01*
X143464364Y-64273313D01*
X143444532Y-64499998D01*
X143444532Y-64500001D01*
X143464364Y-64726686D01*
X143464366Y-64726697D01*
X143523258Y-64946488D01*
X143523261Y-64946497D01*
X143619431Y-65152732D01*
X143619432Y-65152734D01*
X143749954Y-65339141D01*
X143910858Y-65500045D01*
X143910861Y-65500047D01*
X144097266Y-65630568D01*
X144303504Y-65726739D01*
X144303509Y-65726740D01*
X144303511Y-65726741D01*
X144356415Y-65740916D01*
X144523308Y-65785635D01*
X144750000Y-65805468D01*
X144789012Y-65802054D01*
X144857509Y-65815819D01*
X144907693Y-65864433D01*
X144923628Y-65932462D01*
X144900254Y-65998306D01*
X144887500Y-66013263D01*
X144537584Y-66363181D01*
X144476261Y-66396666D01*
X144449903Y-66399500D01*
X139231692Y-66399500D01*
X139164653Y-66379815D01*
X139130119Y-66346625D01*
X139000047Y-66160861D01*
X139000045Y-66160858D01*
X138839141Y-65999954D01*
X138652734Y-65869432D01*
X138652732Y-65869431D01*
X138446497Y-65773261D01*
X138446488Y-65773258D01*
X138226697Y-65714366D01*
X138226693Y-65714365D01*
X138226692Y-65714365D01*
X138226691Y-65714364D01*
X138226686Y-65714364D01*
X138000002Y-65694532D01*
X137999998Y-65694532D01*
X137773313Y-65714364D01*
X137773302Y-65714366D01*
X137553511Y-65773258D01*
X137553502Y-65773261D01*
X137347267Y-65869431D01*
X137347265Y-65869432D01*
X137160858Y-65999954D01*
X136999954Y-66160858D01*
X136869432Y-66347265D01*
X136869431Y-66347267D01*
X136773261Y-66553502D01*
X136773258Y-66553511D01*
X136714366Y-66773302D01*
X136714364Y-66773313D01*
X136694532Y-66999998D01*
X136694532Y-67000001D01*
X136714364Y-67226686D01*
X136714366Y-67226697D01*
X136773258Y-67446488D01*
X136773261Y-67446497D01*
X136869431Y-67652732D01*
X136869432Y-67652734D01*
X136999954Y-67839141D01*
X137160858Y-68000045D01*
X137160861Y-68000047D01*
X137347266Y-68130568D01*
X137553504Y-68226739D01*
X137773308Y-68285635D01*
X137935230Y-68299801D01*
X137999998Y-68305468D01*
X138000000Y-68305468D01*
X138000002Y-68305468D01*
X138062511Y-68299999D01*
X138226692Y-68285635D01*
X138446496Y-68226739D01*
X138652734Y-68130568D01*
X138839139Y-68000047D01*
X138846067Y-67993119D01*
X144766671Y-67993119D01*
X145420000Y-68646447D01*
X145420001Y-68646447D01*
X146073327Y-67993119D01*
X145957178Y-67921202D01*
X145957177Y-67921201D01*
X145749804Y-67840865D01*
X145531193Y-67800000D01*
X145308807Y-67800000D01*
X145090195Y-67840865D01*
X144882824Y-67921200D01*
X144882823Y-67921201D01*
X144766671Y-67993119D01*
X138846067Y-67993119D01*
X139000047Y-67839139D01*
X139130118Y-67653375D01*
X139184693Y-67609752D01*
X139231692Y-67600500D01*
X144663331Y-67600500D01*
X144663347Y-67600501D01*
X144670943Y-67600501D01*
X144829054Y-67600501D01*
X144829057Y-67600501D01*
X144981785Y-67559577D01*
X145031904Y-67530639D01*
X145118716Y-67480520D01*
X145230520Y-67368716D01*
X145230520Y-67368714D01*
X145240728Y-67358507D01*
X145240730Y-67358504D01*
X146807294Y-65791939D01*
X146868615Y-65758456D01*
X146927066Y-65759847D01*
X146933273Y-65761510D01*
X147023308Y-65785635D01*
X147185230Y-65799801D01*
X147249998Y-65805468D01*
X147250000Y-65805468D01*
X147250002Y-65805468D01*
X147306673Y-65800509D01*
X147476692Y-65785635D01*
X147696496Y-65726739D01*
X147902734Y-65630568D01*
X148089139Y-65500047D01*
X148250047Y-65339139D01*
X148380568Y-65152734D01*
X148476739Y-64946496D01*
X148535635Y-64726692D01*
X148555468Y-64500000D01*
X148535635Y-64273308D01*
X148509847Y-64177066D01*
X148511510Y-64107219D01*
X148541942Y-64057293D01*
X148578018Y-64021218D01*
X148639342Y-63987733D01*
X148665698Y-63984900D01*
X148880561Y-63984900D01*
X148947600Y-64004585D01*
X148993355Y-64057389D01*
X149003299Y-64126547D01*
X149000336Y-64140993D01*
X148964860Y-64273390D01*
X148964858Y-64273400D01*
X148945034Y-64499997D01*
X148945034Y-64500002D01*
X148964858Y-64726599D01*
X148964860Y-64726610D01*
X149023730Y-64946317D01*
X149023735Y-64946331D01*
X149119863Y-65152478D01*
X149170974Y-65225472D01*
X149850000Y-64546446D01*
X149850000Y-64552661D01*
X149877259Y-64654394D01*
X149929920Y-64745606D01*
X150004394Y-64820080D01*
X150095606Y-64872741D01*
X150197339Y-64900000D01*
X150203553Y-64900000D01*
X149524526Y-65579025D01*
X149597513Y-65630132D01*
X149597521Y-65630136D01*
X149803668Y-65726264D01*
X149803682Y-65726269D01*
X150023389Y-65785139D01*
X150023400Y-65785141D01*
X150249998Y-65804966D01*
X150250002Y-65804966D01*
X150476599Y-65785141D01*
X150476610Y-65785139D01*
X150696317Y-65726269D01*
X150696331Y-65726264D01*
X150902478Y-65630136D01*
X150975471Y-65579024D01*
X150296447Y-64900000D01*
X150302661Y-64900000D01*
X150404394Y-64872741D01*
X150495606Y-64820080D01*
X150570080Y-64745606D01*
X150622741Y-64654394D01*
X150650000Y-64552661D01*
X150650000Y-64546447D01*
X151329024Y-65225471D01*
X151380134Y-65152481D01*
X151387340Y-65137028D01*
X151433511Y-65084587D01*
X151500704Y-65065433D01*
X151567585Y-65085646D01*
X151612105Y-65137022D01*
X151619430Y-65152730D01*
X151619432Y-65152734D01*
X151749954Y-65339141D01*
X151910858Y-65500045D01*
X151910861Y-65500047D01*
X152097266Y-65630568D01*
X152303504Y-65726739D01*
X152303509Y-65726740D01*
X152303511Y-65726741D01*
X152356415Y-65740916D01*
X152523308Y-65785635D01*
X152685230Y-65799801D01*
X152749998Y-65805468D01*
X152750000Y-65805468D01*
X152750002Y-65805468D01*
X152806673Y-65800509D01*
X152976692Y-65785635D01*
X153072932Y-65759847D01*
X153142781Y-65761510D01*
X153192706Y-65791941D01*
X153823181Y-66422416D01*
X153856666Y-66483739D01*
X153859500Y-66510097D01*
X153859500Y-67890754D01*
X153839815Y-67957793D01*
X153800778Y-67996181D01*
X153733436Y-68037877D01*
X153569020Y-68187761D01*
X153434943Y-68365308D01*
X153434938Y-68365316D01*
X153335775Y-68564461D01*
X153335769Y-68564476D01*
X153274885Y-68778462D01*
X153274884Y-68778464D01*
X153254357Y-68999999D01*
X153254357Y-69000000D01*
X153274884Y-69221535D01*
X153274885Y-69221537D01*
X153335769Y-69435523D01*
X153335775Y-69435538D01*
X153434938Y-69634683D01*
X153434943Y-69634691D01*
X153569020Y-69812238D01*
X153593996Y-69835006D01*
X153630278Y-69894717D01*
X153628517Y-69964564D01*
X153598139Y-70014324D01*
X152838486Y-70773978D01*
X152726681Y-70885782D01*
X152726677Y-70885787D01*
X152676909Y-70971988D01*
X152676910Y-70971989D01*
X152647622Y-71022716D01*
X152628919Y-71092517D01*
X152606699Y-71175443D01*
X152606699Y-71175445D01*
X152606699Y-71343546D01*
X152606700Y-71343559D01*
X152606700Y-72538302D01*
X152587015Y-72605341D01*
X152570381Y-72625983D01*
X151898366Y-73297997D01*
X151837043Y-73331482D01*
X151767351Y-73326498D01*
X151711418Y-73284626D01*
X151687001Y-73219162D01*
X151687213Y-73198885D01*
X151705643Y-73000000D01*
X151691546Y-72847872D01*
X151685115Y-72778464D01*
X151685114Y-72778462D01*
X151679729Y-72759536D01*
X151624229Y-72564472D01*
X151580860Y-72477375D01*
X151525061Y-72365316D01*
X151525056Y-72365308D01*
X151390979Y-72187761D01*
X151226562Y-72037876D01*
X151226560Y-72037874D01*
X151037404Y-71920754D01*
X151037398Y-71920752D01*
X150829940Y-71840382D01*
X150611243Y-71799500D01*
X150388757Y-71799500D01*
X150170060Y-71840382D01*
X150053228Y-71885643D01*
X149962601Y-71920752D01*
X149962595Y-71920754D01*
X149773439Y-72037874D01*
X149773437Y-72037876D01*
X149609020Y-72187761D01*
X149474943Y-72365308D01*
X149474938Y-72365316D01*
X149375775Y-72564461D01*
X149375769Y-72564476D01*
X149314885Y-72778462D01*
X149314884Y-72778464D01*
X149294357Y-72999999D01*
X149294357Y-73000000D01*
X149314884Y-73221535D01*
X149314885Y-73221537D01*
X149375769Y-73435523D01*
X149375775Y-73435538D01*
X149474938Y-73634683D01*
X149474943Y-73634691D01*
X149609020Y-73812238D01*
X149773437Y-73962123D01*
X149773439Y-73962125D01*
X149962595Y-74079245D01*
X149962596Y-74079245D01*
X149962599Y-74079247D01*
X150170060Y-74159618D01*
X150388757Y-74200500D01*
X150388759Y-74200500D01*
X150611242Y-74200500D01*
X150611243Y-74200500D01*
X150690676Y-74185651D01*
X150760191Y-74192681D01*
X150814870Y-74236178D01*
X150837353Y-74302331D01*
X150820501Y-74370138D01*
X150801143Y-74395220D01*
X145433184Y-79763181D01*
X145371861Y-79796666D01*
X145345503Y-79799500D01*
X145308757Y-79799500D01*
X145156083Y-79828039D01*
X145086570Y-79821009D01*
X145031892Y-79777511D01*
X145009409Y-79711358D01*
X145009300Y-79706151D01*
X145009300Y-78286371D01*
X145028985Y-78219332D01*
X145081789Y-78173577D01*
X145150947Y-78163633D01*
X145156032Y-78164473D01*
X145348757Y-78200500D01*
X145348760Y-78200500D01*
X145571241Y-78200500D01*
X145571243Y-78200500D01*
X145789940Y-78159618D01*
X145997401Y-78079247D01*
X146186562Y-77962124D01*
X146350981Y-77812236D01*
X146485058Y-77634689D01*
X146584229Y-77435528D01*
X146645115Y-77221536D01*
X146665643Y-77000000D01*
X146661674Y-76957172D01*
X146645115Y-76778464D01*
X146645114Y-76778462D01*
X146640952Y-76763835D01*
X146584229Y-76564472D01*
X146561825Y-76519479D01*
X146485061Y-76365316D01*
X146485056Y-76365308D01*
X146350979Y-76187761D01*
X146186562Y-76037876D01*
X146186560Y-76037874D01*
X145997404Y-75920754D01*
X145997398Y-75920752D01*
X145997393Y-75920750D01*
X145789940Y-75840382D01*
X145571243Y-75799500D01*
X145348757Y-75799500D01*
X145156085Y-75835517D01*
X145086570Y-75828486D01*
X145031891Y-75784988D01*
X145009409Y-75718834D01*
X145009300Y-75713628D01*
X145009300Y-75312997D01*
X145028985Y-75245958D01*
X145045619Y-75225316D01*
X145424107Y-74846828D01*
X145900520Y-74370416D01*
X145979577Y-74233484D01*
X146020501Y-74080757D01*
X146020501Y-74080753D01*
X146020818Y-74079570D01*
X146057183Y-74019910D01*
X146075312Y-74006239D01*
X146146562Y-73962124D01*
X146310981Y-73812236D01*
X146445058Y-73634689D01*
X146544229Y-73435528D01*
X146605115Y-73221536D01*
X146625643Y-73000000D01*
X146611546Y-72847872D01*
X146605115Y-72778464D01*
X146605114Y-72778462D01*
X146599729Y-72759536D01*
X146544229Y-72564472D01*
X146500860Y-72477375D01*
X146445061Y-72365316D01*
X146445056Y-72365308D01*
X146310979Y-72187761D01*
X146146562Y-72037876D01*
X146146560Y-72037874D01*
X145957404Y-71920754D01*
X145957398Y-71920752D01*
X145749940Y-71840382D01*
X145531243Y-71799500D01*
X145308757Y-71799500D01*
X145090060Y-71840382D01*
X144973228Y-71885643D01*
X144882601Y-71920752D01*
X144882595Y-71920754D01*
X144693439Y-72037874D01*
X144693437Y-72037876D01*
X144529020Y-72187761D01*
X144394943Y-72365308D01*
X144394938Y-72365316D01*
X144295775Y-72564461D01*
X144295769Y-72564476D01*
X144234885Y-72778462D01*
X144234884Y-72778464D01*
X144214357Y-72999999D01*
X144214357Y-73000000D01*
X144234884Y-73221535D01*
X144234885Y-73221537D01*
X144295769Y-73435523D01*
X144295775Y-73435538D01*
X144394938Y-73634683D01*
X144394943Y-73634691D01*
X144529020Y-73812238D01*
X144553996Y-73835006D01*
X144590278Y-73894717D01*
X144588517Y-73964564D01*
X144558139Y-74014324D01*
X144040086Y-74532378D01*
X143928281Y-74644182D01*
X143928279Y-74644185D01*
X143909187Y-74677253D01*
X143890095Y-74710323D01*
X143849223Y-74781115D01*
X143808299Y-74933843D01*
X143808299Y-74933845D01*
X143808299Y-75101946D01*
X143808300Y-75101959D01*
X143808300Y-75707586D01*
X143788615Y-75774625D01*
X143735811Y-75820380D01*
X143666653Y-75830324D01*
X143609989Y-75806853D01*
X143542330Y-75756203D01*
X143542328Y-75756202D01*
X143407482Y-75705908D01*
X143407483Y-75705908D01*
X143347883Y-75699501D01*
X143347881Y-75699500D01*
X143347873Y-75699500D01*
X143347864Y-75699500D01*
X140652129Y-75699500D01*
X140652123Y-75699501D01*
X140592516Y-75705908D01*
X140457671Y-75756202D01*
X140457664Y-75756206D01*
X140342455Y-75842452D01*
X140342452Y-75842455D01*
X140256206Y-75957664D01*
X140256202Y-75957671D01*
X140205908Y-76092517D01*
X140199501Y-76152116D01*
X140199500Y-76152131D01*
X140199500Y-76849787D01*
X140179815Y-76916826D01*
X140137504Y-76957172D01*
X140124442Y-76964714D01*
X140124438Y-76964716D01*
X140029587Y-77019477D01*
X140029582Y-77019481D01*
X130519481Y-86529582D01*
X130519475Y-86529590D01*
X130474358Y-86607737D01*
X130474358Y-86607738D01*
X130440423Y-86666515D01*
X130399499Y-86819243D01*
X130399499Y-86819245D01*
X130399499Y-86987346D01*
X130399500Y-86987359D01*
X130399500Y-87075500D01*
X130379815Y-87142539D01*
X130327011Y-87188294D01*
X130275501Y-87199500D01*
X130152130Y-87199500D01*
X130152123Y-87199501D01*
X130092516Y-87205908D01*
X129957671Y-87256202D01*
X129957664Y-87256206D01*
X129842455Y-87342452D01*
X129842452Y-87342455D01*
X129756206Y-87457664D01*
X129756202Y-87457671D01*
X129705908Y-87592517D01*
X129699501Y-87652116D01*
X129699501Y-87652123D01*
X129699500Y-87652135D01*
X129699500Y-89347870D01*
X129699501Y-89347876D01*
X129705908Y-89407483D01*
X129756202Y-89542328D01*
X129756206Y-89542335D01*
X129842452Y-89657544D01*
X129842455Y-89657547D01*
X129957664Y-89743793D01*
X129957671Y-89743797D01*
X130092517Y-89794091D01*
X130092516Y-89794091D01*
X130099444Y-89794835D01*
X130152127Y-89800500D01*
X131847872Y-89800499D01*
X131907483Y-89794091D01*
X132042331Y-89743796D01*
X132157546Y-89657546D01*
X132243796Y-89542331D01*
X132294091Y-89407483D01*
X132300500Y-89347873D01*
X132300499Y-88499997D01*
X133195034Y-88499997D01*
X133195034Y-88500002D01*
X133214858Y-88726599D01*
X133214860Y-88726610D01*
X133273730Y-88946317D01*
X133273735Y-88946331D01*
X133369863Y-89152478D01*
X133420974Y-89225472D01*
X134100000Y-88546446D01*
X134100000Y-88552661D01*
X134127259Y-88654394D01*
X134179920Y-88745606D01*
X134254394Y-88820080D01*
X134345606Y-88872741D01*
X134447339Y-88900000D01*
X134453553Y-88900000D01*
X133774526Y-89579025D01*
X133847513Y-89630132D01*
X133847521Y-89630136D01*
X134053668Y-89726264D01*
X134053682Y-89726269D01*
X134273389Y-89785139D01*
X134273400Y-89785141D01*
X134499998Y-89804966D01*
X134500002Y-89804966D01*
X134726599Y-89785141D01*
X134726610Y-89785139D01*
X134946317Y-89726269D01*
X134946331Y-89726264D01*
X135152478Y-89630136D01*
X135225471Y-89579024D01*
X134546447Y-88900000D01*
X134552661Y-88900000D01*
X134654394Y-88872741D01*
X134745606Y-88820080D01*
X134820080Y-88745606D01*
X134872741Y-88654394D01*
X134900000Y-88552661D01*
X134900000Y-88546447D01*
X135579024Y-89225471D01*
X135630136Y-89152478D01*
X135726264Y-88946331D01*
X135726269Y-88946317D01*
X135785139Y-88726610D01*
X135785141Y-88726599D01*
X135804966Y-88500002D01*
X135804966Y-88499997D01*
X139195034Y-88499997D01*
X139195034Y-88500002D01*
X139214858Y-88726599D01*
X139214860Y-88726610D01*
X139273730Y-88946317D01*
X139273735Y-88946331D01*
X139369863Y-89152478D01*
X139420974Y-89225472D01*
X140100000Y-88546446D01*
X140100000Y-88552661D01*
X140127259Y-88654394D01*
X140179920Y-88745606D01*
X140254394Y-88820080D01*
X140345606Y-88872741D01*
X140447339Y-88900000D01*
X140453553Y-88900000D01*
X139774526Y-89579025D01*
X139847513Y-89630132D01*
X139847521Y-89630136D01*
X140053668Y-89726264D01*
X140053682Y-89726269D01*
X140273389Y-89785139D01*
X140273400Y-89785141D01*
X140499998Y-89804966D01*
X140500002Y-89804966D01*
X140726599Y-89785141D01*
X140726610Y-89785139D01*
X140946317Y-89726269D01*
X140946331Y-89726264D01*
X141152478Y-89630136D01*
X141225471Y-89579024D01*
X140546447Y-88900000D01*
X140552661Y-88900000D01*
X140654394Y-88872741D01*
X140745606Y-88820080D01*
X140820080Y-88745606D01*
X140872741Y-88654394D01*
X140900000Y-88552661D01*
X140900000Y-88546447D01*
X141579024Y-89225471D01*
X141630136Y-89152478D01*
X141726264Y-88946331D01*
X141726269Y-88946317D01*
X141785139Y-88726610D01*
X141785141Y-88726599D01*
X141804966Y-88500002D01*
X141804966Y-88499997D01*
X141785141Y-88273400D01*
X141785139Y-88273389D01*
X141726269Y-88053682D01*
X141726264Y-88053668D01*
X141630136Y-87847521D01*
X141630132Y-87847513D01*
X141579025Y-87774526D01*
X140900000Y-88453551D01*
X140900000Y-88447339D01*
X140872741Y-88345606D01*
X140820080Y-88254394D01*
X140745606Y-88179920D01*
X140654394Y-88127259D01*
X140552661Y-88100000D01*
X140546448Y-88100000D01*
X141225472Y-87420974D01*
X141152478Y-87369863D01*
X140946331Y-87273735D01*
X140946317Y-87273730D01*
X140726610Y-87214860D01*
X140726599Y-87214858D01*
X140500002Y-87195034D01*
X140499998Y-87195034D01*
X140273400Y-87214858D01*
X140273389Y-87214860D01*
X140053682Y-87273730D01*
X140053673Y-87273734D01*
X139847516Y-87369866D01*
X139847512Y-87369868D01*
X139774526Y-87420973D01*
X139774526Y-87420974D01*
X140453553Y-88100000D01*
X140447339Y-88100000D01*
X140345606Y-88127259D01*
X140254394Y-88179920D01*
X140179920Y-88254394D01*
X140127259Y-88345606D01*
X140100000Y-88447339D01*
X140100000Y-88453552D01*
X139420974Y-87774526D01*
X139420973Y-87774526D01*
X139369868Y-87847512D01*
X139369866Y-87847516D01*
X139273734Y-88053673D01*
X139273730Y-88053682D01*
X139214860Y-88273389D01*
X139214858Y-88273400D01*
X139195034Y-88499997D01*
X135804966Y-88499997D01*
X135785141Y-88273400D01*
X135785139Y-88273389D01*
X135726269Y-88053682D01*
X135726264Y-88053668D01*
X135630136Y-87847521D01*
X135630132Y-87847513D01*
X135579025Y-87774526D01*
X134900000Y-88453551D01*
X134900000Y-88447339D01*
X134872741Y-88345606D01*
X134820080Y-88254394D01*
X134745606Y-88179920D01*
X134654394Y-88127259D01*
X134552661Y-88100000D01*
X134546448Y-88100000D01*
X135225472Y-87420974D01*
X135152478Y-87369863D01*
X134946331Y-87273735D01*
X134946317Y-87273730D01*
X134726610Y-87214860D01*
X134726599Y-87214858D01*
X134500002Y-87195034D01*
X134499998Y-87195034D01*
X134273400Y-87214858D01*
X134273389Y-87214860D01*
X134053682Y-87273730D01*
X134053673Y-87273734D01*
X133847516Y-87369866D01*
X133847512Y-87369868D01*
X133774526Y-87420973D01*
X133774526Y-87420974D01*
X134453553Y-88100000D01*
X134447339Y-88100000D01*
X134345606Y-88127259D01*
X134254394Y-88179920D01*
X134179920Y-88254394D01*
X134127259Y-88345606D01*
X134100000Y-88447339D01*
X134100000Y-88453552D01*
X133420974Y-87774526D01*
X133420973Y-87774526D01*
X133369868Y-87847512D01*
X133369866Y-87847516D01*
X133273734Y-88053673D01*
X133273730Y-88053682D01*
X133214860Y-88273389D01*
X133214858Y-88273400D01*
X133195034Y-88499997D01*
X132300499Y-88499997D01*
X132300499Y-87652128D01*
X132294091Y-87592517D01*
X132271262Y-87531310D01*
X132243797Y-87457671D01*
X132243793Y-87457664D01*
X132157547Y-87342455D01*
X132157544Y-87342452D01*
X132042335Y-87256206D01*
X132042328Y-87256202D01*
X131907482Y-87205908D01*
X131907483Y-87205908D01*
X131847883Y-87199501D01*
X131847881Y-87199500D01*
X131847873Y-87199500D01*
X131847865Y-87199500D01*
X131847397Y-87199500D01*
X131847292Y-87199469D01*
X131844548Y-87199322D01*
X131844582Y-87198673D01*
X131780358Y-87179815D01*
X131734603Y-87127011D01*
X131724659Y-87057853D01*
X131753684Y-86994297D01*
X131759716Y-86987819D01*
X133072827Y-85674708D01*
X137027971Y-81719562D01*
X137089292Y-81686079D01*
X137158984Y-81691063D01*
X137214917Y-81732935D01*
X137239334Y-81798399D01*
X137236541Y-81834837D01*
X137214616Y-81930896D01*
X137214616Y-81930898D01*
X137194451Y-82199995D01*
X137194451Y-82200004D01*
X137214616Y-82469099D01*
X137267680Y-82701590D01*
X137274666Y-82732195D01*
X137373257Y-82983398D01*
X137508185Y-83217102D01*
X137544700Y-83262890D01*
X137676442Y-83428089D01*
X137785807Y-83529564D01*
X137874259Y-83611635D01*
X138097226Y-83763651D01*
X138097229Y-83763652D01*
X138097230Y-83763653D01*
X138111490Y-83770520D01*
X138340359Y-83880738D01*
X138598228Y-83960280D01*
X138598229Y-83960280D01*
X138598232Y-83960281D01*
X138865063Y-84000499D01*
X138865068Y-84000499D01*
X138865071Y-84000500D01*
X138865072Y-84000500D01*
X139134928Y-84000500D01*
X139134929Y-84000500D01*
X139155848Y-83997347D01*
X139401767Y-83960281D01*
X139401768Y-83960280D01*
X139401772Y-83960280D01*
X139659641Y-83880738D01*
X139851765Y-83788216D01*
X139902767Y-83763655D01*
X139902767Y-83763654D01*
X139902775Y-83763651D01*
X140125741Y-83611635D01*
X140323561Y-83428085D01*
X140491815Y-83217102D01*
X140626743Y-82983398D01*
X140725334Y-82732195D01*
X140785383Y-82469103D01*
X140785382Y-82469103D01*
X140785384Y-82469099D01*
X140805549Y-82200004D01*
X140805549Y-82199995D01*
X140785383Y-81930898D01*
X140750955Y-81780058D01*
X140725334Y-81667805D01*
X140626743Y-81416602D01*
X140491815Y-81182898D01*
X140323561Y-80971915D01*
X140323560Y-80971914D01*
X140323557Y-80971910D01*
X140125741Y-80788365D01*
X140111216Y-80778462D01*
X139902775Y-80636349D01*
X139902771Y-80636347D01*
X139902768Y-80636345D01*
X139902767Y-80636344D01*
X139659643Y-80519263D01*
X139659645Y-80519263D01*
X139401773Y-80439720D01*
X139401767Y-80439718D01*
X139134936Y-80399500D01*
X139134929Y-80399500D01*
X138865071Y-80399500D01*
X138865063Y-80399500D01*
X138628894Y-80435097D01*
X138559670Y-80425624D01*
X138506556Y-80380229D01*
X138486416Y-80313325D01*
X138505644Y-80246153D01*
X138522727Y-80224806D01*
X139987821Y-78759712D01*
X140049142Y-78726229D01*
X140118834Y-78731213D01*
X140174767Y-78773085D01*
X140199184Y-78838549D01*
X140199500Y-78847362D01*
X140199500Y-78847853D01*
X140199501Y-78847876D01*
X140205908Y-78907483D01*
X140256202Y-79042328D01*
X140256206Y-79042335D01*
X140342452Y-79157544D01*
X140342455Y-79157547D01*
X140457664Y-79243793D01*
X140457671Y-79243797D01*
X140592517Y-79294091D01*
X140592516Y-79294091D01*
X140599444Y-79294835D01*
X140652127Y-79300500D01*
X143347872Y-79300499D01*
X143407483Y-79294091D01*
X143542331Y-79243796D01*
X143609990Y-79193146D01*
X143675452Y-79168729D01*
X143743725Y-79183580D01*
X143793131Y-79232984D01*
X143808300Y-79292413D01*
X143808300Y-82127330D01*
X143808299Y-82127348D01*
X143808299Y-82293054D01*
X143808298Y-82293054D01*
X143849223Y-82445786D01*
X143862684Y-82469099D01*
X143862685Y-82469104D01*
X143862686Y-82469104D01*
X143928275Y-82582709D01*
X143928281Y-82582717D01*
X144047149Y-82701585D01*
X144047155Y-82701590D01*
X144813181Y-83467616D01*
X144846666Y-83528939D01*
X144849500Y-83555297D01*
X144849500Y-85648202D01*
X144829815Y-85715241D01*
X144813181Y-85735883D01*
X143519481Y-87029582D01*
X143519479Y-87029585D01*
X143469361Y-87116394D01*
X143469358Y-87116399D01*
X143457172Y-87137504D01*
X143406603Y-87185718D01*
X143349788Y-87199500D01*
X143152130Y-87199500D01*
X143152123Y-87199501D01*
X143092516Y-87205908D01*
X142957671Y-87256202D01*
X142957664Y-87256206D01*
X142842455Y-87342452D01*
X142842452Y-87342455D01*
X142756206Y-87457664D01*
X142756202Y-87457671D01*
X142705908Y-87592517D01*
X142699501Y-87652116D01*
X142699501Y-87652123D01*
X142699500Y-87652135D01*
X142699500Y-89347870D01*
X142699501Y-89347876D01*
X142705908Y-89407483D01*
X142756202Y-89542328D01*
X142756206Y-89542335D01*
X142842452Y-89657544D01*
X142842455Y-89657547D01*
X142957664Y-89743793D01*
X142957671Y-89743797D01*
X143092517Y-89794091D01*
X143092516Y-89794091D01*
X143099444Y-89794835D01*
X143152127Y-89800500D01*
X144847872Y-89800499D01*
X144907483Y-89794091D01*
X145042331Y-89743796D01*
X145157546Y-89657546D01*
X145215598Y-89579999D01*
X183794357Y-89579999D01*
X183794357Y-89580000D01*
X183814884Y-89801535D01*
X183814885Y-89801537D01*
X183875769Y-90015523D01*
X183875775Y-90015538D01*
X183974938Y-90214683D01*
X183974943Y-90214691D01*
X184109020Y-90392238D01*
X184273437Y-90542123D01*
X184273439Y-90542125D01*
X184462595Y-90659245D01*
X184462596Y-90659245D01*
X184462599Y-90659247D01*
X184670060Y-90739618D01*
X184888757Y-90780500D01*
X184888759Y-90780500D01*
X185111241Y-90780500D01*
X185111243Y-90780500D01*
X185329940Y-90739618D01*
X185537401Y-90659247D01*
X185726562Y-90542124D01*
X185890981Y-90392236D01*
X186025058Y-90214689D01*
X186124229Y-90015528D01*
X186185115Y-89801536D01*
X186205643Y-89580000D01*
X186193271Y-89446488D01*
X186185115Y-89358464D01*
X186185114Y-89358462D01*
X186183717Y-89353553D01*
X186124229Y-89144472D01*
X186124224Y-89144461D01*
X186025061Y-88945316D01*
X186025056Y-88945308D01*
X185890979Y-88767761D01*
X185726562Y-88617876D01*
X185726560Y-88617874D01*
X185537404Y-88500754D01*
X185537398Y-88500752D01*
X185535457Y-88500000D01*
X185329940Y-88420382D01*
X185111243Y-88379500D01*
X184888757Y-88379500D01*
X184670060Y-88420382D01*
X184538864Y-88471207D01*
X184462601Y-88500752D01*
X184462595Y-88500754D01*
X184273439Y-88617874D01*
X184273437Y-88617876D01*
X184109020Y-88767761D01*
X183974943Y-88945308D01*
X183974938Y-88945316D01*
X183875775Y-89144461D01*
X183875769Y-89144476D01*
X183814885Y-89358462D01*
X183814884Y-89358464D01*
X183794357Y-89579999D01*
X145215598Y-89579999D01*
X145243796Y-89542331D01*
X145294091Y-89407483D01*
X145300500Y-89347873D01*
X145300499Y-87652128D01*
X145294091Y-87592517D01*
X145271262Y-87531310D01*
X145243797Y-87457671D01*
X145243793Y-87457664D01*
X145157547Y-87342455D01*
X145157546Y-87342454D01*
X145157543Y-87342452D01*
X145127722Y-87320127D01*
X145085851Y-87264196D01*
X145080867Y-87194504D01*
X145114348Y-87133185D01*
X145930520Y-86317016D01*
X146009577Y-86180084D01*
X146050501Y-86027357D01*
X146050501Y-85869242D01*
X146050501Y-85861647D01*
X146050500Y-85861629D01*
X146050500Y-83979700D01*
X146070185Y-83912661D01*
X146122989Y-83866906D01*
X146174500Y-83855700D01*
X147425392Y-83855700D01*
X147492431Y-83875385D01*
X147538186Y-83928189D01*
X147548130Y-83997347D01*
X147519105Y-84060903D01*
X147465655Y-84096981D01*
X147395197Y-84121169D01*
X147395188Y-84121172D01*
X147176493Y-84239524D01*
X146980257Y-84392261D01*
X146811833Y-84575217D01*
X146675826Y-84783393D01*
X146575936Y-85011118D01*
X146514892Y-85252175D01*
X146514890Y-85252187D01*
X146494357Y-85499994D01*
X146494357Y-85500005D01*
X146514890Y-85747812D01*
X146514892Y-85747824D01*
X146575936Y-85988881D01*
X146675826Y-86216606D01*
X146811833Y-86424782D01*
X146811836Y-86424785D01*
X146980256Y-86607738D01*
X147176491Y-86760474D01*
X147176493Y-86760475D01*
X147394332Y-86878364D01*
X147395190Y-86878828D01*
X147614141Y-86953994D01*
X147628964Y-86959083D01*
X147630386Y-86959571D01*
X147875665Y-87000500D01*
X148124335Y-87000500D01*
X148369614Y-86959571D01*
X148604810Y-86878828D01*
X148823509Y-86760474D01*
X149019744Y-86607738D01*
X149188164Y-86424785D01*
X149324173Y-86216607D01*
X149424063Y-85988881D01*
X149485108Y-85747821D01*
X149487808Y-85715241D01*
X149505643Y-85500005D01*
X149505643Y-85499994D01*
X149485109Y-85252187D01*
X149485107Y-85252175D01*
X149484556Y-85250000D01*
X161755960Y-85250000D01*
X162806988Y-85250000D01*
X162774075Y-85307007D01*
X162740000Y-85434174D01*
X162740000Y-85565826D01*
X162774075Y-85692993D01*
X162806988Y-85750000D01*
X161755960Y-85750000D01*
X161816411Y-85988716D01*
X161916267Y-86216367D01*
X162052232Y-86424478D01*
X162220592Y-86607364D01*
X162220602Y-86607373D01*
X162416762Y-86760051D01*
X162416771Y-86760057D01*
X162635385Y-86878364D01*
X162635396Y-86878369D01*
X162870507Y-86959083D01*
X162989999Y-86979023D01*
X162990000Y-86979022D01*
X162990000Y-85933012D01*
X163047007Y-85965925D01*
X163174174Y-86000000D01*
X163305826Y-86000000D01*
X163432993Y-85965925D01*
X163490000Y-85933012D01*
X163490000Y-86979023D01*
X163609492Y-86959083D01*
X163844603Y-86878369D01*
X163844614Y-86878364D01*
X164063228Y-86760057D01*
X164063237Y-86760051D01*
X164259397Y-86607373D01*
X164259407Y-86607364D01*
X164427767Y-86424478D01*
X164563732Y-86216367D01*
X164663588Y-85988716D01*
X164724040Y-85750000D01*
X163673012Y-85750000D01*
X163705925Y-85692993D01*
X163740000Y-85565826D01*
X163740000Y-85434174D01*
X163705925Y-85307007D01*
X163673012Y-85250000D01*
X164724040Y-85250000D01*
X164663588Y-85011283D01*
X164563732Y-84783632D01*
X164427767Y-84575521D01*
X164259407Y-84392635D01*
X164259397Y-84392626D01*
X164063237Y-84239948D01*
X164063228Y-84239942D01*
X163844614Y-84121635D01*
X163844603Y-84121630D01*
X163609492Y-84040916D01*
X163490000Y-84020976D01*
X163490000Y-85066988D01*
X163432993Y-85034075D01*
X163305826Y-85000000D01*
X163174174Y-85000000D01*
X163047007Y-85034075D01*
X162990000Y-85066988D01*
X162990000Y-84020976D01*
X162989999Y-84020976D01*
X162870507Y-84040916D01*
X162635396Y-84121630D01*
X162635385Y-84121635D01*
X162416771Y-84239942D01*
X162416762Y-84239948D01*
X162220602Y-84392626D01*
X162220592Y-84392635D01*
X162052232Y-84575521D01*
X161916267Y-84783632D01*
X161816411Y-85011283D01*
X161755960Y-85250000D01*
X149484556Y-85250000D01*
X149424063Y-85011118D01*
X149324173Y-84783393D01*
X149188166Y-84575217D01*
X149149433Y-84533142D01*
X149019744Y-84392262D01*
X148823509Y-84239526D01*
X148823507Y-84239525D01*
X148823506Y-84239524D01*
X148604811Y-84121172D01*
X148604802Y-84121169D01*
X148534345Y-84096981D01*
X148477330Y-84056596D01*
X148451199Y-83991796D01*
X148464250Y-83923156D01*
X148512339Y-83872469D01*
X148574608Y-83855700D01*
X153158131Y-83855700D01*
X153158147Y-83855701D01*
X153165743Y-83855701D01*
X153323854Y-83855701D01*
X153323857Y-83855701D01*
X153476585Y-83814777D01*
X153553240Y-83770520D01*
X153613516Y-83735720D01*
X153725320Y-83623916D01*
X153725320Y-83623914D01*
X153735524Y-83613711D01*
X153735528Y-83613706D01*
X155057294Y-82291939D01*
X155118615Y-82258456D01*
X155177066Y-82259847D01*
X155196604Y-82265082D01*
X155273308Y-82285635D01*
X155435230Y-82299801D01*
X155499998Y-82305468D01*
X155500000Y-82305468D01*
X155500002Y-82305468D01*
X155556673Y-82300509D01*
X155726692Y-82285635D01*
X155946496Y-82226739D01*
X156152734Y-82130568D01*
X156339139Y-82000047D01*
X156500047Y-81839139D01*
X156630568Y-81652734D01*
X156726739Y-81446496D01*
X156726784Y-81446331D01*
X156736362Y-81410579D01*
X156755484Y-81339217D01*
X156791847Y-81279558D01*
X156854694Y-81249028D01*
X156924069Y-81257322D01*
X156977948Y-81301807D01*
X156995033Y-81339217D01*
X157023731Y-81446319D01*
X157023735Y-81446331D01*
X157119863Y-81652478D01*
X157170974Y-81725472D01*
X157850000Y-81046446D01*
X157850000Y-81052661D01*
X157877259Y-81154394D01*
X157929920Y-81245606D01*
X158004394Y-81320080D01*
X158095606Y-81372741D01*
X158197339Y-81400000D01*
X158203553Y-81400000D01*
X157524526Y-82079025D01*
X157597513Y-82130132D01*
X157597521Y-82130136D01*
X157803668Y-82226264D01*
X157803682Y-82226269D01*
X158023389Y-82285139D01*
X158023400Y-82285141D01*
X158249998Y-82304966D01*
X158250002Y-82304966D01*
X158476599Y-82285141D01*
X158476610Y-82285139D01*
X158696317Y-82226269D01*
X158696331Y-82226264D01*
X158902478Y-82130136D01*
X158975471Y-82079024D01*
X158296447Y-81400000D01*
X158302661Y-81400000D01*
X158404394Y-81372741D01*
X158495606Y-81320080D01*
X158570080Y-81245606D01*
X158622741Y-81154394D01*
X158650000Y-81052661D01*
X158650000Y-81046447D01*
X159329024Y-81725471D01*
X159380134Y-81652481D01*
X159387340Y-81637028D01*
X159433511Y-81584587D01*
X159500704Y-81565433D01*
X159567585Y-81585646D01*
X159612105Y-81637022D01*
X159619430Y-81652730D01*
X159619432Y-81652734D01*
X159749954Y-81839141D01*
X159910858Y-82000045D01*
X159910861Y-82000047D01*
X160097266Y-82130568D01*
X160303504Y-82226739D01*
X160523308Y-82285635D01*
X160685230Y-82299801D01*
X160749998Y-82305468D01*
X160750000Y-82305468D01*
X160750002Y-82305468D01*
X160806673Y-82300509D01*
X160976692Y-82285635D01*
X161196496Y-82226739D01*
X161402734Y-82130568D01*
X161589139Y-82000047D01*
X161750047Y-81839139D01*
X161880568Y-81652734D01*
X161976739Y-81446496D01*
X162035635Y-81226692D01*
X162055468Y-81000000D01*
X162054854Y-80992987D01*
X162035734Y-80774441D01*
X162049501Y-80705941D01*
X162071578Y-80675956D01*
X162246493Y-80501040D01*
X162307816Y-80467556D01*
X162377508Y-80472540D01*
X162421853Y-80501039D01*
X162484355Y-80563541D01*
X162540862Y-80620048D01*
X162564137Y-80636345D01*
X162727266Y-80750568D01*
X162933504Y-80846739D01*
X163153308Y-80905635D01*
X163315230Y-80919801D01*
X163379998Y-80925468D01*
X163380000Y-80925468D01*
X163380002Y-80925468D01*
X163438133Y-80920382D01*
X163606692Y-80905635D01*
X163826496Y-80846739D01*
X164032734Y-80750568D01*
X164219139Y-80620047D01*
X164380047Y-80459139D01*
X164510568Y-80272734D01*
X164606739Y-80066496D01*
X164665635Y-79846692D01*
X164685468Y-79620000D01*
X164685325Y-79618370D01*
X164670409Y-79447873D01*
X164665635Y-79393308D01*
X164606739Y-79173504D01*
X164510568Y-78967266D01*
X164380047Y-78780861D01*
X164380045Y-78780858D01*
X164375191Y-78776004D01*
X164341706Y-78714681D01*
X164346690Y-78644989D01*
X164375188Y-78600645D01*
X165300320Y-77675516D01*
X165379377Y-77538584D01*
X165420301Y-77385857D01*
X165420301Y-77227742D01*
X165420301Y-77220147D01*
X165420300Y-77220129D01*
X165420300Y-76896097D01*
X165439985Y-76829058D01*
X165456619Y-76808416D01*
X167554713Y-74710322D01*
X169662440Y-72602594D01*
X169723761Y-72569111D01*
X169793453Y-72574095D01*
X169849386Y-72615967D01*
X169862500Y-72637870D01*
X169869429Y-72652730D01*
X169869430Y-72652731D01*
X169999954Y-72839141D01*
X170160858Y-73000045D01*
X170160861Y-73000047D01*
X170346624Y-73130118D01*
X170390248Y-73184693D01*
X170399500Y-73231692D01*
X170399500Y-73308306D01*
X170379815Y-73375345D01*
X170346623Y-73409881D01*
X170160859Y-73539953D01*
X169999954Y-73700858D01*
X169869432Y-73887265D01*
X169869431Y-73887267D01*
X169773261Y-74093502D01*
X169773258Y-74093511D01*
X169714366Y-74313302D01*
X169714364Y-74313313D01*
X169694532Y-74539998D01*
X169694532Y-74540001D01*
X169714364Y-74766686D01*
X169714366Y-74766697D01*
X169773258Y-74986488D01*
X169773261Y-74986497D01*
X169869431Y-75192732D01*
X169869432Y-75192734D01*
X169999954Y-75379141D01*
X170160858Y-75540045D01*
X170160861Y-75540047D01*
X170347266Y-75670568D01*
X170405275Y-75697618D01*
X170457714Y-75743791D01*
X170476866Y-75810984D01*
X170456650Y-75877865D01*
X170405275Y-75922382D01*
X170347267Y-75949431D01*
X170347265Y-75949432D01*
X170160858Y-76079954D01*
X169999954Y-76240858D01*
X169869432Y-76427265D01*
X169869431Y-76427267D01*
X169773261Y-76633502D01*
X169773258Y-76633511D01*
X169714366Y-76853302D01*
X169714364Y-76853313D01*
X169694532Y-77079998D01*
X169694532Y-77080001D01*
X169714364Y-77306686D01*
X169714366Y-77306697D01*
X169773258Y-77526488D01*
X169773261Y-77526497D01*
X169869431Y-77732732D01*
X169869432Y-77732734D01*
X169999954Y-77919141D01*
X170160858Y-78080045D01*
X170160861Y-78080047D01*
X170347266Y-78210568D01*
X170405275Y-78237618D01*
X170457714Y-78283791D01*
X170476866Y-78350984D01*
X170456650Y-78417865D01*
X170405275Y-78462381D01*
X170388272Y-78470310D01*
X170347267Y-78489431D01*
X170347265Y-78489432D01*
X170160858Y-78619954D01*
X169999954Y-78780858D01*
X169869432Y-78967265D01*
X169869431Y-78967267D01*
X169773261Y-79173502D01*
X169773258Y-79173511D01*
X169714366Y-79393302D01*
X169714364Y-79393313D01*
X169694532Y-79619998D01*
X169694532Y-79620001D01*
X169714364Y-79846686D01*
X169714366Y-79846697D01*
X169773258Y-80066488D01*
X169773261Y-80066497D01*
X169869431Y-80272732D01*
X169869432Y-80272734D01*
X169999954Y-80459141D01*
X170160858Y-80620045D01*
X170160861Y-80620047D01*
X170347266Y-80750568D01*
X170400182Y-80775243D01*
X170452621Y-80821416D01*
X170471772Y-80888610D01*
X170451556Y-80955491D01*
X170435457Y-80975306D01*
X167363548Y-84047215D01*
X167302225Y-84080700D01*
X167235604Y-84076815D01*
X167129616Y-84040429D01*
X166884335Y-83999500D01*
X166635665Y-83999500D01*
X166390383Y-84040429D01*
X166155197Y-84121169D01*
X166155188Y-84121172D01*
X165936493Y-84239524D01*
X165740257Y-84392261D01*
X165571833Y-84575217D01*
X165435826Y-84783393D01*
X165335936Y-85011118D01*
X165274892Y-85252175D01*
X165274890Y-85252187D01*
X165254357Y-85499994D01*
X165254357Y-85500005D01*
X165274890Y-85747812D01*
X165274892Y-85747824D01*
X165335936Y-85988881D01*
X165435826Y-86216606D01*
X165571833Y-86424782D01*
X165571836Y-86424785D01*
X165740256Y-86607738D01*
X165936491Y-86760474D01*
X165936493Y-86760475D01*
X166154332Y-86878364D01*
X166155190Y-86878828D01*
X166374141Y-86953994D01*
X166388964Y-86959083D01*
X166390386Y-86959571D01*
X166635665Y-87000500D01*
X166884335Y-87000500D01*
X167129614Y-86959571D01*
X167364810Y-86878828D01*
X167583509Y-86760474D01*
X167779744Y-86607738D01*
X167948164Y-86424785D01*
X168084173Y-86216607D01*
X168184063Y-85988881D01*
X168245108Y-85747821D01*
X168247808Y-85715241D01*
X168265643Y-85500005D01*
X168265643Y-85499994D01*
X168245109Y-85252187D01*
X168245108Y-85252183D01*
X168245108Y-85252179D01*
X168239826Y-85231322D01*
X168186126Y-85019266D01*
X168184063Y-85011119D01*
X168184062Y-85011118D01*
X168183992Y-85010839D01*
X168186616Y-84941018D01*
X168216514Y-84892719D01*
X172727850Y-80381383D01*
X172789171Y-80347900D01*
X172858863Y-80352884D01*
X172914796Y-80394756D01*
X172917083Y-80397914D01*
X172946356Y-80439720D01*
X172959955Y-80459142D01*
X173120858Y-80620045D01*
X173120861Y-80620047D01*
X173307266Y-80750568D01*
X173513504Y-80846739D01*
X173733308Y-80905635D01*
X173895230Y-80919801D01*
X173959998Y-80925468D01*
X173960000Y-80925468D01*
X173960002Y-80925468D01*
X174018133Y-80920382D01*
X174186692Y-80905635D01*
X174406496Y-80846739D01*
X174612734Y-80750568D01*
X174799139Y-80620047D01*
X174960047Y-80459139D01*
X175090568Y-80272734D01*
X175186739Y-80066496D01*
X175245635Y-79846692D01*
X175265468Y-79620000D01*
X175265325Y-79618370D01*
X175250409Y-79447873D01*
X175245635Y-79393308D01*
X175186739Y-79173504D01*
X175090568Y-78967266D01*
X174960047Y-78780861D01*
X174960045Y-78780858D01*
X174799141Y-78619954D01*
X174612731Y-78489430D01*
X174612727Y-78489428D01*
X174606127Y-78486350D01*
X174553691Y-78440175D01*
X174534542Y-78372981D01*
X174538763Y-78341879D01*
X174542936Y-78326306D01*
X174553556Y-78286668D01*
X174589919Y-78227011D01*
X174611346Y-78211368D01*
X174612715Y-78210576D01*
X174612734Y-78210568D01*
X174799139Y-78080047D01*
X174960047Y-77919139D01*
X175090568Y-77732734D01*
X175169339Y-77563809D01*
X175215509Y-77511372D01*
X175282702Y-77492220D01*
X175349584Y-77512435D01*
X175369400Y-77528535D01*
X179343881Y-81503016D01*
X179377366Y-81564339D01*
X179380200Y-81590697D01*
X179380200Y-85310630D01*
X179380199Y-85310648D01*
X179380199Y-85476354D01*
X179380198Y-85476354D01*
X179421123Y-85629087D01*
X179421125Y-85629090D01*
X179444080Y-85668848D01*
X179444081Y-85668849D01*
X179481663Y-85733943D01*
X179500179Y-85766014D01*
X179500181Y-85766017D01*
X179619049Y-85884885D01*
X179619055Y-85884890D01*
X180902739Y-87168574D01*
X180902749Y-87168585D01*
X180907079Y-87172915D01*
X180907080Y-87172916D01*
X181018884Y-87284720D01*
X181080216Y-87320129D01*
X181105695Y-87334839D01*
X181105697Y-87334841D01*
X181143751Y-87356811D01*
X181155815Y-87363777D01*
X181308543Y-87404700D01*
X182609131Y-87404700D01*
X182609147Y-87404701D01*
X182616743Y-87404701D01*
X182774854Y-87404701D01*
X182774857Y-87404701D01*
X182927585Y-87363777D01*
X182977704Y-87334839D01*
X183064516Y-87284720D01*
X183176320Y-87172916D01*
X183176320Y-87172914D01*
X183186528Y-87162707D01*
X183186530Y-87162704D01*
X184640319Y-85708914D01*
X184701640Y-85675431D01*
X184750783Y-85674708D01*
X184888757Y-85700500D01*
X184888759Y-85700500D01*
X185111241Y-85700500D01*
X185111243Y-85700500D01*
X185329940Y-85659618D01*
X185537401Y-85579247D01*
X185726562Y-85462124D01*
X185890981Y-85312236D01*
X186025058Y-85134689D01*
X186025058Y-85134688D01*
X186027685Y-85131210D01*
X186083793Y-85089573D01*
X186153505Y-85084881D01*
X186214320Y-85118255D01*
X187121481Y-86025416D01*
X187154966Y-86086739D01*
X187157800Y-86113097D01*
X187157800Y-87921630D01*
X187157799Y-87921648D01*
X187157799Y-88087354D01*
X187157798Y-88087354D01*
X187198723Y-88240085D01*
X187227658Y-88290200D01*
X187227659Y-88290204D01*
X187227660Y-88290204D01*
X187257833Y-88342467D01*
X187277779Y-88377014D01*
X187277781Y-88377017D01*
X187396649Y-88495885D01*
X187396655Y-88495890D01*
X187458058Y-88557293D01*
X187491543Y-88618616D01*
X187490152Y-88677067D01*
X187464366Y-88773302D01*
X187464364Y-88773313D01*
X187444532Y-88999998D01*
X187444532Y-89000001D01*
X187464364Y-89226686D01*
X187464366Y-89226697D01*
X187523258Y-89446488D01*
X187523261Y-89446497D01*
X187619431Y-89652732D01*
X187619432Y-89652734D01*
X187749954Y-89839141D01*
X187910858Y-90000045D01*
X187910861Y-90000047D01*
X188097266Y-90130568D01*
X188303504Y-90226739D01*
X188523308Y-90285635D01*
X188685230Y-90299801D01*
X188749998Y-90305468D01*
X188750000Y-90305468D01*
X188750002Y-90305468D01*
X188806673Y-90300509D01*
X188976692Y-90285635D01*
X189196496Y-90226739D01*
X189402734Y-90130568D01*
X189589139Y-90000047D01*
X189750047Y-89839139D01*
X189880568Y-89652734D01*
X189887893Y-89637024D01*
X189934064Y-89584586D01*
X190001257Y-89565433D01*
X190068138Y-89585648D01*
X190112657Y-89637024D01*
X190119864Y-89652480D01*
X190170974Y-89725472D01*
X190850000Y-89046446D01*
X190850000Y-89052661D01*
X190877259Y-89154394D01*
X190929920Y-89245606D01*
X191004394Y-89320080D01*
X191095606Y-89372741D01*
X191197339Y-89400000D01*
X191203553Y-89400000D01*
X190524526Y-90079025D01*
X190597513Y-90130132D01*
X190597521Y-90130136D01*
X190803668Y-90226264D01*
X190803682Y-90226269D01*
X191023389Y-90285139D01*
X191023400Y-90285141D01*
X191249998Y-90304966D01*
X191250002Y-90304966D01*
X191476599Y-90285141D01*
X191476610Y-90285139D01*
X191696317Y-90226269D01*
X191696331Y-90226264D01*
X191902478Y-90130136D01*
X191975471Y-90079024D01*
X191296447Y-89400000D01*
X191302661Y-89400000D01*
X191404394Y-89372741D01*
X191495606Y-89320080D01*
X191570080Y-89245606D01*
X191622741Y-89154394D01*
X191650000Y-89052661D01*
X191650000Y-89046447D01*
X192329024Y-89725471D01*
X192380136Y-89652478D01*
X192476264Y-89446331D01*
X192476269Y-89446317D01*
X192535139Y-89226610D01*
X192535141Y-89226599D01*
X192554966Y-89000002D01*
X192554966Y-88999997D01*
X192535141Y-88773400D01*
X192535139Y-88773389D01*
X192476269Y-88553682D01*
X192476264Y-88553668D01*
X192380136Y-88347521D01*
X192380132Y-88347513D01*
X192329025Y-88274526D01*
X191650000Y-88953551D01*
X191650000Y-88947339D01*
X191622741Y-88845606D01*
X191570080Y-88754394D01*
X191495606Y-88679920D01*
X191404394Y-88627259D01*
X191302661Y-88600000D01*
X191296448Y-88600000D01*
X191975472Y-87920974D01*
X191902478Y-87869863D01*
X191696331Y-87773735D01*
X191696317Y-87773730D01*
X191476610Y-87714860D01*
X191476599Y-87714858D01*
X191250002Y-87695034D01*
X191249998Y-87695034D01*
X191023400Y-87714858D01*
X191023389Y-87714860D01*
X190803682Y-87773730D01*
X190803673Y-87773734D01*
X190597516Y-87869866D01*
X190597512Y-87869868D01*
X190524526Y-87920973D01*
X190524526Y-87920974D01*
X191203553Y-88600000D01*
X191197339Y-88600000D01*
X191095606Y-88627259D01*
X191004394Y-88679920D01*
X190929920Y-88754394D01*
X190877259Y-88845606D01*
X190850000Y-88947339D01*
X190850000Y-88953552D01*
X190170974Y-88274526D01*
X190170973Y-88274526D01*
X190119868Y-88347512D01*
X190119867Y-88347514D01*
X190112656Y-88362979D01*
X190066482Y-88415417D01*
X189999288Y-88434567D01*
X189932407Y-88414350D01*
X189887893Y-88362976D01*
X189880568Y-88347266D01*
X189750047Y-88160861D01*
X189750045Y-88160858D01*
X189589141Y-87999954D01*
X189402734Y-87869432D01*
X189402732Y-87869431D01*
X189196497Y-87773261D01*
X189196488Y-87773258D01*
X188976697Y-87714366D01*
X188976693Y-87714365D01*
X188976692Y-87714365D01*
X188976691Y-87714364D01*
X188976686Y-87714364D01*
X188750002Y-87694532D01*
X188749998Y-87694532D01*
X188523313Y-87714364D01*
X188523300Y-87714366D01*
X188514886Y-87716621D01*
X188445036Y-87714954D01*
X188387176Y-87675788D01*
X188359676Y-87611558D01*
X188358800Y-87596844D01*
X188358800Y-86739998D01*
X196095147Y-86739998D01*
X196095147Y-86740001D01*
X196114536Y-87011090D01*
X196114537Y-87011097D01*
X196172305Y-87276654D01*
X196267285Y-87531306D01*
X196267287Y-87531310D01*
X196397532Y-87769835D01*
X196397537Y-87769843D01*
X196491321Y-87895123D01*
X196491322Y-87895124D01*
X197227546Y-87158900D01*
X197320343Y-87297780D01*
X197442220Y-87419657D01*
X197581098Y-87512452D01*
X196844874Y-88248676D01*
X196970163Y-88342466D01*
X196970164Y-88342467D01*
X197208689Y-88472712D01*
X197208693Y-88472714D01*
X197463345Y-88567694D01*
X197728902Y-88625462D01*
X197728909Y-88625463D01*
X197999999Y-88644853D01*
X198000001Y-88644853D01*
X198271090Y-88625463D01*
X198271097Y-88625462D01*
X198536654Y-88567694D01*
X198791306Y-88472714D01*
X198791310Y-88472712D01*
X199029844Y-88342462D01*
X199155123Y-88248677D01*
X199155124Y-88248676D01*
X198418900Y-87512453D01*
X198557780Y-87419657D01*
X198679657Y-87297780D01*
X198772452Y-87158900D01*
X199508676Y-87895124D01*
X199508677Y-87895123D01*
X199602462Y-87769844D01*
X199732712Y-87531310D01*
X199732714Y-87531306D01*
X199827694Y-87276654D01*
X199885462Y-87011097D01*
X199885463Y-87011090D01*
X199904853Y-86740001D01*
X199904853Y-86739998D01*
X199885463Y-86468909D01*
X199885462Y-86468902D01*
X199827694Y-86203345D01*
X199732714Y-85948693D01*
X199732712Y-85948689D01*
X199602467Y-85710164D01*
X199602466Y-85710163D01*
X199508676Y-85584874D01*
X198772452Y-86321098D01*
X198679657Y-86182220D01*
X198557780Y-86060343D01*
X198418900Y-85967546D01*
X199155124Y-85231322D01*
X199155123Y-85231321D01*
X199029843Y-85137537D01*
X199029835Y-85137532D01*
X198791310Y-85007287D01*
X198791306Y-85007285D01*
X198536654Y-84912305D01*
X198271097Y-84854537D01*
X198271090Y-84854536D01*
X198000001Y-84835147D01*
X197999999Y-84835147D01*
X197728909Y-84854536D01*
X197728902Y-84854537D01*
X197463345Y-84912305D01*
X197208693Y-85007285D01*
X197208689Y-85007287D01*
X196970164Y-85137532D01*
X196970156Y-85137537D01*
X196844875Y-85231321D01*
X196844874Y-85231322D01*
X197581099Y-85967546D01*
X197442220Y-86060343D01*
X197320343Y-86182220D01*
X197227547Y-86321099D01*
X196491322Y-85584874D01*
X196491321Y-85584875D01*
X196397537Y-85710156D01*
X196397532Y-85710164D01*
X196267287Y-85948689D01*
X196267285Y-85948693D01*
X196172305Y-86203345D01*
X196114537Y-86468902D01*
X196114536Y-86468909D01*
X196095147Y-86739998D01*
X188358800Y-86739998D01*
X188358800Y-86524000D01*
X188378485Y-86456961D01*
X188431289Y-86411206D01*
X188482800Y-86400000D01*
X188710000Y-86400000D01*
X188710000Y-85375277D01*
X188786306Y-85419333D01*
X188900756Y-85450000D01*
X189019244Y-85450000D01*
X189133694Y-85419333D01*
X189210000Y-85375277D01*
X189210000Y-86400000D01*
X189907828Y-86400000D01*
X189907844Y-86399999D01*
X189967372Y-86393598D01*
X189967379Y-86393596D01*
X190102086Y-86343354D01*
X190102093Y-86343350D01*
X190217187Y-86257190D01*
X190217190Y-86257187D01*
X190303350Y-86142093D01*
X190303355Y-86142084D01*
X190332075Y-86065081D01*
X190373945Y-86009147D01*
X190439409Y-85984729D01*
X190507682Y-85999580D01*
X190539484Y-86024428D01*
X190548216Y-86033913D01*
X190548219Y-86033915D01*
X190548222Y-86033918D01*
X190731365Y-86176464D01*
X190731371Y-86176468D01*
X190731374Y-86176470D01*
X190935497Y-86286936D01*
X191023097Y-86317009D01*
X191155015Y-86362297D01*
X191155017Y-86362297D01*
X191155019Y-86362298D01*
X191383951Y-86400500D01*
X191383952Y-86400500D01*
X191616048Y-86400500D01*
X191616049Y-86400500D01*
X191844981Y-86362298D01*
X192064503Y-86286936D01*
X192268626Y-86176470D01*
X192451784Y-86033913D01*
X192608979Y-85863153D01*
X192735924Y-85668849D01*
X192829157Y-85456300D01*
X192886134Y-85231305D01*
X192894428Y-85131210D01*
X192905300Y-85000006D01*
X192905300Y-84999993D01*
X192886135Y-84768702D01*
X192886133Y-84768691D01*
X192829157Y-84543699D01*
X192735924Y-84331151D01*
X192608983Y-84136852D01*
X192608980Y-84136849D01*
X192608979Y-84136847D01*
X192451784Y-83966087D01*
X192451779Y-83966083D01*
X192451777Y-83966081D01*
X192268634Y-83823535D01*
X192268628Y-83823531D01*
X192064504Y-83713064D01*
X192064495Y-83713061D01*
X191844984Y-83637702D01*
X191657404Y-83606401D01*
X191616049Y-83599500D01*
X191383951Y-83599500D01*
X191342596Y-83606401D01*
X191155015Y-83637702D01*
X190935504Y-83713061D01*
X190935495Y-83713064D01*
X190731371Y-83823531D01*
X190731365Y-83823535D01*
X190548222Y-83966081D01*
X190548215Y-83966087D01*
X190539484Y-83975572D01*
X190479595Y-84011561D01*
X190409757Y-84009458D01*
X190352143Y-83969932D01*
X190332075Y-83934918D01*
X190303355Y-83857915D01*
X190303350Y-83857906D01*
X190217190Y-83742812D01*
X190217187Y-83742809D01*
X190102093Y-83656649D01*
X190102086Y-83656645D01*
X189967379Y-83606403D01*
X189967372Y-83606401D01*
X189907844Y-83600000D01*
X189210000Y-83600000D01*
X189210000Y-84624722D01*
X189133694Y-84580667D01*
X189019244Y-84550000D01*
X188900756Y-84550000D01*
X188786306Y-84580667D01*
X188710000Y-84624722D01*
X188710000Y-83600000D01*
X188012155Y-83600000D01*
X187952627Y-83606401D01*
X187952620Y-83606403D01*
X187817913Y-83656645D01*
X187817906Y-83656649D01*
X187702812Y-83742809D01*
X187702809Y-83742812D01*
X187616649Y-83857906D01*
X187616645Y-83857913D01*
X187566403Y-83992620D01*
X187566401Y-83992627D01*
X187560000Y-84052155D01*
X187560000Y-84466103D01*
X187540315Y-84533142D01*
X187487511Y-84578897D01*
X187418353Y-84588841D01*
X187354797Y-84559816D01*
X187348319Y-84553784D01*
X185875984Y-83081449D01*
X185842499Y-83020126D01*
X185847483Y-82950434D01*
X185880128Y-82902130D01*
X185890981Y-82892236D01*
X186017608Y-82724553D01*
X186073716Y-82682917D01*
X186084441Y-82679513D01*
X186233485Y-82639577D01*
X186283604Y-82610639D01*
X186370416Y-82560520D01*
X186482220Y-82448716D01*
X186482220Y-82448714D01*
X186492428Y-82438507D01*
X186492429Y-82438504D01*
X187270936Y-81659998D01*
X196094645Y-81659998D01*
X196094645Y-81660001D01*
X196114039Y-81931160D01*
X196114040Y-81931167D01*
X196171823Y-82196793D01*
X196171825Y-82196801D01*
X196229067Y-82350271D01*
X196266830Y-82451519D01*
X196397109Y-82690107D01*
X196397110Y-82690108D01*
X196397113Y-82690113D01*
X196560029Y-82907742D01*
X196560033Y-82907746D01*
X196560038Y-82907752D01*
X196752247Y-83099961D01*
X196752253Y-83099966D01*
X196752258Y-83099971D01*
X196969887Y-83262887D01*
X196969891Y-83262889D01*
X196969892Y-83262890D01*
X197208481Y-83393169D01*
X197208480Y-83393169D01*
X197208484Y-83393170D01*
X197208487Y-83393172D01*
X197463199Y-83488175D01*
X197728840Y-83545961D01*
X197980605Y-83563967D01*
X197999999Y-83565355D01*
X198000000Y-83565355D01*
X198000001Y-83565355D01*
X198018100Y-83564060D01*
X198271160Y-83545961D01*
X198536801Y-83488175D01*
X198791513Y-83393172D01*
X198791517Y-83393169D01*
X198791519Y-83393169D01*
X198910813Y-83328029D01*
X199030113Y-83262887D01*
X199247742Y-83099971D01*
X199439971Y-82907742D01*
X199602887Y-82690113D01*
X199723567Y-82469103D01*
X199733169Y-82451519D01*
X199733169Y-82451517D01*
X199733172Y-82451513D01*
X199828175Y-82196801D01*
X199885961Y-81931160D01*
X199905355Y-81660000D01*
X199885961Y-81388840D01*
X199828175Y-81123199D01*
X199733172Y-80868487D01*
X199733170Y-80868484D01*
X199733169Y-80868480D01*
X199602890Y-80629892D01*
X199602889Y-80629891D01*
X199602887Y-80629887D01*
X199439971Y-80412258D01*
X199439966Y-80412253D01*
X199439961Y-80412247D01*
X199247752Y-80220038D01*
X199247746Y-80220033D01*
X199247742Y-80220029D01*
X199030113Y-80057113D01*
X199030108Y-80057110D01*
X199030107Y-80057109D01*
X198791518Y-79926830D01*
X198791519Y-79926830D01*
X198720920Y-79900498D01*
X198536801Y-79831825D01*
X198536794Y-79831823D01*
X198536793Y-79831823D01*
X198271167Y-79774040D01*
X198271160Y-79774039D01*
X198000001Y-79754645D01*
X197999999Y-79754645D01*
X197728839Y-79774039D01*
X197728832Y-79774040D01*
X197463206Y-79831823D01*
X197463202Y-79831824D01*
X197463199Y-79831825D01*
X197361202Y-79869868D01*
X197208480Y-79926830D01*
X196969892Y-80057109D01*
X196969891Y-80057110D01*
X196752259Y-80220028D01*
X196752247Y-80220038D01*
X196560038Y-80412247D01*
X196560028Y-80412259D01*
X196397110Y-80629891D01*
X196397109Y-80629892D01*
X196266830Y-80868480D01*
X196234377Y-80955491D01*
X196171825Y-81123199D01*
X196171824Y-81123202D01*
X196171823Y-81123206D01*
X196114040Y-81388832D01*
X196114039Y-81388839D01*
X196094645Y-81659998D01*
X187270936Y-81659998D01*
X188592416Y-80338519D01*
X188653739Y-80305034D01*
X188680097Y-80302200D01*
X189039055Y-80302200D01*
X189039057Y-80302200D01*
X189191784Y-80261277D01*
X189328716Y-80182220D01*
X189440520Y-80070416D01*
X189502825Y-79962498D01*
X189553391Y-79914284D01*
X189610212Y-79900499D01*
X189907871Y-79900499D01*
X189907872Y-79900499D01*
X189967483Y-79894091D01*
X190102331Y-79843796D01*
X190217546Y-79757546D01*
X190303796Y-79642331D01*
X190354091Y-79507483D01*
X190360500Y-79447873D01*
X190360499Y-79337304D01*
X190380183Y-79270268D01*
X190396818Y-79249626D01*
X191057861Y-78588584D01*
X191080667Y-78673694D01*
X191139910Y-78776306D01*
X191223694Y-78860090D01*
X191326306Y-78919333D01*
X191411414Y-78942138D01*
X190701201Y-79652351D01*
X190731649Y-79676050D01*
X190935697Y-79786476D01*
X190935706Y-79786479D01*
X191155139Y-79861811D01*
X191383993Y-79900000D01*
X191616007Y-79900000D01*
X191844860Y-79861811D01*
X192064293Y-79786479D01*
X192064301Y-79786476D01*
X192268355Y-79676047D01*
X192298797Y-79652351D01*
X192298798Y-79652350D01*
X191588585Y-78942137D01*
X191673694Y-78919333D01*
X191776306Y-78860090D01*
X191860090Y-78776306D01*
X191919333Y-78673694D01*
X191942138Y-78588585D01*
X192651186Y-79297633D01*
X192735482Y-79168611D01*
X192828682Y-78956135D01*
X192885638Y-78731218D01*
X192904798Y-78500005D01*
X192904798Y-78499994D01*
X192885638Y-78268781D01*
X192828682Y-78043864D01*
X192735484Y-77831393D01*
X192651186Y-77702365D01*
X191942137Y-78411414D01*
X191919333Y-78326306D01*
X191860090Y-78223694D01*
X191776306Y-78139910D01*
X191673694Y-78080667D01*
X191588584Y-78057861D01*
X192298797Y-77347647D01*
X192296596Y-77312183D01*
X192312089Y-77244053D01*
X192361956Y-77195114D01*
X192420358Y-77180500D01*
X196109489Y-77180500D01*
X196176528Y-77200185D01*
X196222283Y-77252989D01*
X196225671Y-77261166D01*
X196266830Y-77371519D01*
X196397109Y-77610107D01*
X196397110Y-77610108D01*
X196397113Y-77610113D01*
X196560029Y-77827742D01*
X196560033Y-77827746D01*
X196560038Y-77827752D01*
X196752247Y-78019961D01*
X196752253Y-78019966D01*
X196752258Y-78019971D01*
X196969887Y-78182887D01*
X196969891Y-78182889D01*
X196969892Y-78182890D01*
X197208481Y-78313169D01*
X197208480Y-78313169D01*
X197208484Y-78313170D01*
X197208487Y-78313172D01*
X197463199Y-78408175D01*
X197728840Y-78465961D01*
X197980605Y-78483967D01*
X197999999Y-78485355D01*
X198000000Y-78485355D01*
X198000001Y-78485355D01*
X198018100Y-78484060D01*
X198271160Y-78465961D01*
X198536801Y-78408175D01*
X198791513Y-78313172D01*
X198791517Y-78313169D01*
X198791519Y-78313169D01*
X198946379Y-78228609D01*
X199030113Y-78182887D01*
X199247742Y-78019971D01*
X199439971Y-77827742D01*
X199602887Y-77610113D01*
X199706037Y-77421207D01*
X199733169Y-77371519D01*
X199733169Y-77371517D01*
X199733172Y-77371513D01*
X199828175Y-77116801D01*
X199885961Y-76851160D01*
X199905355Y-76580000D01*
X199885961Y-76308840D01*
X199828175Y-76043199D01*
X199733172Y-75788487D01*
X199733170Y-75788484D01*
X199733169Y-75788480D01*
X199602890Y-75549892D01*
X199602889Y-75549891D01*
X199602887Y-75549887D01*
X199439971Y-75332258D01*
X199439966Y-75332253D01*
X199439961Y-75332247D01*
X199247752Y-75140038D01*
X199247746Y-75140033D01*
X199247742Y-75140029D01*
X199030113Y-74977113D01*
X199030108Y-74977110D01*
X199030107Y-74977109D01*
X198791518Y-74846830D01*
X198791519Y-74846830D01*
X198741920Y-74828330D01*
X198536801Y-74751825D01*
X198536794Y-74751823D01*
X198536793Y-74751823D01*
X198271167Y-74694040D01*
X198271160Y-74694039D01*
X198000001Y-74674645D01*
X197999999Y-74674645D01*
X197728839Y-74694039D01*
X197728832Y-74694040D01*
X197463206Y-74751823D01*
X197463202Y-74751824D01*
X197463199Y-74751825D01*
X197384670Y-74781115D01*
X197208480Y-74846830D01*
X196969892Y-74977109D01*
X196969891Y-74977110D01*
X196752259Y-75140028D01*
X196752247Y-75140038D01*
X196560038Y-75332247D01*
X196560028Y-75332259D01*
X196397110Y-75549891D01*
X196397109Y-75549892D01*
X196266830Y-75788480D01*
X196238056Y-75865627D01*
X196228685Y-75890754D01*
X196225671Y-75898834D01*
X196183799Y-75954767D01*
X196118335Y-75979184D01*
X196109489Y-75979500D01*
X185667562Y-75979500D01*
X185602285Y-75960927D01*
X185537404Y-75920754D01*
X185537395Y-75920750D01*
X185450698Y-75887164D01*
X185395101Y-75865625D01*
X185339701Y-75823054D01*
X185316110Y-75757288D01*
X185331821Y-75689207D01*
X185381844Y-75640428D01*
X185395093Y-75634377D01*
X185537401Y-75579247D01*
X185726562Y-75462124D01*
X185869030Y-75332247D01*
X185890979Y-75312238D01*
X185935183Y-75253703D01*
X186025058Y-75134689D01*
X186124229Y-74935528D01*
X186185115Y-74721536D01*
X186205643Y-74500000D01*
X186193635Y-74370416D01*
X186185115Y-74278464D01*
X186185114Y-74278462D01*
X186173083Y-74236178D01*
X186124229Y-74064472D01*
X186124224Y-74064461D01*
X186025061Y-73865316D01*
X186025056Y-73865308D01*
X185890979Y-73687761D01*
X185726562Y-73537876D01*
X185726560Y-73537874D01*
X185537404Y-73420754D01*
X185537398Y-73420752D01*
X185329940Y-73340382D01*
X185111243Y-73299500D01*
X184888757Y-73299500D01*
X184670060Y-73340382D01*
X184561646Y-73382382D01*
X184462601Y-73420752D01*
X184462595Y-73420754D01*
X184273439Y-73537874D01*
X184273437Y-73537876D01*
X184109020Y-73687761D01*
X183974943Y-73865308D01*
X183974938Y-73865316D01*
X183875775Y-74064461D01*
X183875771Y-74064472D01*
X183853383Y-74143156D01*
X183816103Y-74202249D01*
X183752793Y-74231806D01*
X183683553Y-74222442D01*
X183646436Y-74196901D01*
X182521687Y-73072152D01*
X182488202Y-73010829D01*
X182493186Y-72941137D01*
X182521687Y-72896789D01*
X182579660Y-72838816D01*
X182710134Y-72652482D01*
X182806265Y-72446326D01*
X182806269Y-72446317D01*
X182858872Y-72250000D01*
X181895686Y-72250000D01*
X181900080Y-72245606D01*
X181952741Y-72154394D01*
X181980000Y-72052661D01*
X181980000Y-71947339D01*
X181952741Y-71845606D01*
X181900080Y-71754394D01*
X181895686Y-71750000D01*
X182858872Y-71750000D01*
X182858872Y-71749999D01*
X182806269Y-71553682D01*
X182806265Y-71553673D01*
X182710134Y-71347517D01*
X182579657Y-71161179D01*
X182418820Y-71000342D01*
X182232482Y-70869865D01*
X182026328Y-70773734D01*
X181830000Y-70721127D01*
X181830000Y-71684314D01*
X181825606Y-71679920D01*
X181734394Y-71627259D01*
X181632661Y-71600000D01*
X181527339Y-71600000D01*
X181425606Y-71627259D01*
X181334394Y-71679920D01*
X181330000Y-71684314D01*
X181330000Y-70721127D01*
X181133671Y-70773734D01*
X180927517Y-70869865D01*
X180741179Y-71000342D01*
X180580342Y-71161179D01*
X180449863Y-71347521D01*
X180449859Y-71347527D01*
X180448878Y-71349632D01*
X180448200Y-71350400D01*
X180447158Y-71352207D01*
X180446794Y-71351997D01*
X180402697Y-71402063D01*
X180335500Y-71421204D01*
X180268622Y-71400977D01*
X180248824Y-71384889D01*
X178283934Y-69419999D01*
X183794357Y-69419999D01*
X183794357Y-69420000D01*
X183814884Y-69641535D01*
X183814885Y-69641537D01*
X183875769Y-69855523D01*
X183875775Y-69855538D01*
X183974938Y-70054683D01*
X183974943Y-70054691D01*
X184109020Y-70232238D01*
X184273437Y-70382123D01*
X184273439Y-70382125D01*
X184462595Y-70499245D01*
X184462596Y-70499245D01*
X184462599Y-70499247D01*
X184670060Y-70579618D01*
X184888757Y-70620500D01*
X184888759Y-70620500D01*
X185111241Y-70620500D01*
X185111243Y-70620500D01*
X185329940Y-70579618D01*
X185537401Y-70499247D01*
X185726562Y-70382124D01*
X185890981Y-70232236D01*
X186013667Y-70069772D01*
X186069776Y-70028137D01*
X186112621Y-70020500D01*
X188619903Y-70020500D01*
X188686942Y-70040185D01*
X188707584Y-70056819D01*
X189173681Y-70522916D01*
X189207166Y-70584239D01*
X189210000Y-70610597D01*
X189210000Y-71624722D01*
X189133694Y-71580667D01*
X189019244Y-71550000D01*
X188900756Y-71550000D01*
X188786306Y-71580667D01*
X188710000Y-71624722D01*
X188710000Y-70600000D01*
X188012155Y-70600000D01*
X187952627Y-70606401D01*
X187952620Y-70606403D01*
X187817913Y-70656645D01*
X187817906Y-70656649D01*
X187702812Y-70742809D01*
X187702809Y-70742812D01*
X187616649Y-70857906D01*
X187616645Y-70857913D01*
X187566403Y-70992620D01*
X187566401Y-70992627D01*
X187560000Y-71052155D01*
X187560000Y-71750000D01*
X188584722Y-71750000D01*
X188540667Y-71826306D01*
X188510000Y-71940756D01*
X188510000Y-72059244D01*
X188540667Y-72173694D01*
X188584722Y-72250000D01*
X187560000Y-72250000D01*
X187560000Y-72947844D01*
X187566401Y-73007372D01*
X187566403Y-73007379D01*
X187616645Y-73142086D01*
X187616649Y-73142093D01*
X187702809Y-73257187D01*
X187702812Y-73257190D01*
X187817906Y-73343350D01*
X187817913Y-73343354D01*
X187952620Y-73393596D01*
X187952627Y-73393598D01*
X188012155Y-73399999D01*
X188012172Y-73400000D01*
X188710000Y-73400000D01*
X188710000Y-72375277D01*
X188786306Y-72419333D01*
X188900756Y-72450000D01*
X189019244Y-72450000D01*
X189133694Y-72419333D01*
X189210000Y-72375277D01*
X189210000Y-73400000D01*
X189907828Y-73400000D01*
X189907844Y-73399999D01*
X189967372Y-73393598D01*
X189967379Y-73393596D01*
X190102086Y-73343354D01*
X190102093Y-73343350D01*
X190217187Y-73257190D01*
X190217190Y-73257187D01*
X190303350Y-73142093D01*
X190303355Y-73142084D01*
X190332075Y-73065081D01*
X190373945Y-73009147D01*
X190439409Y-72984729D01*
X190507682Y-72999580D01*
X190539484Y-73024428D01*
X190548216Y-73033913D01*
X190548219Y-73033915D01*
X190548222Y-73033918D01*
X190731365Y-73176464D01*
X190731371Y-73176468D01*
X190731374Y-73176470D01*
X190935497Y-73286936D01*
X190967717Y-73297997D01*
X191155015Y-73362297D01*
X191155017Y-73362297D01*
X191155019Y-73362298D01*
X191383951Y-73400500D01*
X191383952Y-73400500D01*
X191616048Y-73400500D01*
X191616049Y-73400500D01*
X191844981Y-73362298D01*
X192064503Y-73286936D01*
X192268626Y-73176470D01*
X192451784Y-73033913D01*
X192608979Y-72863153D01*
X192735924Y-72668849D01*
X192829157Y-72456300D01*
X192886134Y-72231305D01*
X192886516Y-72226697D01*
X192905300Y-72000006D01*
X192905300Y-71999993D01*
X192886135Y-71768702D01*
X192886133Y-71768691D01*
X192829157Y-71543699D01*
X192735924Y-71331151D01*
X192608983Y-71136852D01*
X192608980Y-71136849D01*
X192608979Y-71136847D01*
X192451784Y-70966087D01*
X192451779Y-70966083D01*
X192451777Y-70966081D01*
X192268634Y-70823535D01*
X192268628Y-70823531D01*
X192064504Y-70713064D01*
X192064495Y-70713061D01*
X191844984Y-70637702D01*
X191657404Y-70606401D01*
X191616049Y-70599500D01*
X191383951Y-70599500D01*
X191345795Y-70605867D01*
X191155014Y-70637702D01*
X191103098Y-70655524D01*
X191033300Y-70658672D01*
X190975158Y-70625923D01*
X189407590Y-69058355D01*
X189407588Y-69058352D01*
X189288717Y-68939481D01*
X189288716Y-68939480D01*
X189180642Y-68877084D01*
X189180641Y-68877083D01*
X189151783Y-68860422D01*
X189095881Y-68845443D01*
X188999057Y-68819499D01*
X188840943Y-68819499D01*
X188833347Y-68819499D01*
X188833331Y-68819500D01*
X186112621Y-68819500D01*
X186045582Y-68799815D01*
X186013667Y-68770227D01*
X185890979Y-68607761D01*
X185726562Y-68457876D01*
X185726560Y-68457874D01*
X185537404Y-68340754D01*
X185537398Y-68340752D01*
X185329940Y-68260382D01*
X185111243Y-68219500D01*
X184888757Y-68219500D01*
X184670060Y-68260382D01*
X184553680Y-68305468D01*
X184462601Y-68340752D01*
X184462595Y-68340754D01*
X184273439Y-68457874D01*
X184273437Y-68457876D01*
X184109020Y-68607761D01*
X183974943Y-68785308D01*
X183974938Y-68785316D01*
X183875775Y-68984461D01*
X183875769Y-68984476D01*
X183814885Y-69198462D01*
X183814885Y-69198463D01*
X183794357Y-69419999D01*
X178283934Y-69419999D01*
X177296819Y-68432884D01*
X177263334Y-68371561D01*
X177260500Y-68345203D01*
X177260500Y-67566487D01*
X177280185Y-67499448D01*
X177332989Y-67453693D01*
X177337002Y-67451945D01*
X177388859Y-67430466D01*
X177603659Y-67298836D01*
X177795224Y-67135224D01*
X177958836Y-66943659D01*
X178090466Y-66728859D01*
X178186873Y-66496111D01*
X178245683Y-66251148D01*
X178265449Y-66000000D01*
X179814551Y-66000000D01*
X179834317Y-66251151D01*
X179893126Y-66496110D01*
X179989533Y-66728859D01*
X180121160Y-66943653D01*
X180121161Y-66943656D01*
X180121164Y-66943659D01*
X180284776Y-67135224D01*
X180433066Y-67261875D01*
X180476343Y-67298838D01*
X180476346Y-67298839D01*
X180691140Y-67430466D01*
X180848787Y-67495765D01*
X180923889Y-67526873D01*
X181168852Y-67585683D01*
X181420000Y-67605449D01*
X181671148Y-67585683D01*
X181916111Y-67526873D01*
X182148859Y-67430466D01*
X182363659Y-67298836D01*
X182555224Y-67135224D01*
X182718836Y-66943659D01*
X182850466Y-66728859D01*
X182946873Y-66496111D01*
X183005683Y-66251148D01*
X183025449Y-66000000D01*
X183005683Y-65748852D01*
X182946873Y-65503889D01*
X182945281Y-65500045D01*
X182850466Y-65271140D01*
X182718839Y-65056346D01*
X182718838Y-65056343D01*
X182625019Y-64946496D01*
X182555224Y-64864776D01*
X182540423Y-64852135D01*
X189979500Y-64852135D01*
X189979500Y-67147870D01*
X189979501Y-67147876D01*
X189985908Y-67207483D01*
X190036202Y-67342328D01*
X190036206Y-67342335D01*
X190122452Y-67457544D01*
X190122455Y-67457547D01*
X190237664Y-67543793D01*
X190237671Y-67543797D01*
X190279977Y-67559576D01*
X190372517Y-67594091D01*
X190432127Y-67600500D01*
X190929787Y-67600499D01*
X190996826Y-67620183D01*
X191037174Y-67662499D01*
X191099477Y-67770412D01*
X191099479Y-67770415D01*
X191099480Y-67770416D01*
X191211284Y-67882220D01*
X191211286Y-67882221D01*
X191211290Y-67882224D01*
X191278803Y-67921202D01*
X191348216Y-67961277D01*
X191500943Y-68002200D01*
X191659057Y-68002200D01*
X191899903Y-68002200D01*
X191966942Y-68021885D01*
X191987584Y-68038519D01*
X195813439Y-71864374D01*
X195813449Y-71864385D01*
X195817779Y-71868715D01*
X195817780Y-71868716D01*
X195929584Y-71980520D01*
X196037501Y-72042825D01*
X196085715Y-72093390D01*
X196099500Y-72150211D01*
X196099500Y-72947870D01*
X196099501Y-72947876D01*
X196105908Y-73007483D01*
X196156202Y-73142328D01*
X196156206Y-73142335D01*
X196242452Y-73257544D01*
X196242455Y-73257547D01*
X196357664Y-73343793D01*
X196357671Y-73343797D01*
X196492517Y-73394091D01*
X196492516Y-73394091D01*
X196499444Y-73394835D01*
X196552127Y-73400500D01*
X199447872Y-73400499D01*
X199507483Y-73394091D01*
X199642331Y-73343796D01*
X199757546Y-73257546D01*
X199843796Y-73142331D01*
X199894091Y-73007483D01*
X199900500Y-72947873D01*
X199900499Y-70052128D01*
X199894091Y-69992517D01*
X199883665Y-69964564D01*
X199843797Y-69857671D01*
X199843793Y-69857664D01*
X199757547Y-69742455D01*
X199757544Y-69742452D01*
X199642335Y-69656206D01*
X199642328Y-69656202D01*
X199507482Y-69605908D01*
X199507483Y-69605908D01*
X199447883Y-69599501D01*
X199447881Y-69599500D01*
X199447873Y-69599500D01*
X199447864Y-69599500D01*
X196552129Y-69599500D01*
X196552123Y-69599501D01*
X196492516Y-69605908D01*
X196357671Y-69656202D01*
X196357664Y-69656206D01*
X196242455Y-69742452D01*
X196242452Y-69742455D01*
X196156206Y-69857664D01*
X196156202Y-69857671D01*
X196105908Y-69992517D01*
X196103564Y-70014324D01*
X196099501Y-70052123D01*
X196099500Y-70052135D01*
X196099500Y-70152603D01*
X196079815Y-70219642D01*
X196027011Y-70265397D01*
X195957853Y-70275341D01*
X195894297Y-70246316D01*
X195887819Y-70240284D01*
X193142130Y-67494595D01*
X193108645Y-67433272D01*
X193113629Y-67363580D01*
X193120983Y-67347479D01*
X193123787Y-67342341D01*
X193123796Y-67342331D01*
X193174091Y-67207483D01*
X193180500Y-67147873D01*
X193180499Y-64852128D01*
X193174091Y-64792517D01*
X193156594Y-64745606D01*
X193123797Y-64657671D01*
X193123793Y-64657664D01*
X193037547Y-64542455D01*
X193037544Y-64542452D01*
X192922335Y-64456206D01*
X192922328Y-64456202D01*
X192787482Y-64405908D01*
X192787483Y-64405908D01*
X192727883Y-64399501D01*
X192727881Y-64399500D01*
X192727873Y-64399500D01*
X192727864Y-64399500D01*
X190432129Y-64399500D01*
X190432123Y-64399501D01*
X190372516Y-64405908D01*
X190237671Y-64456202D01*
X190237664Y-64456206D01*
X190122455Y-64542452D01*
X190122452Y-64542455D01*
X190036206Y-64657664D01*
X190036202Y-64657671D01*
X189985908Y-64792517D01*
X189979501Y-64852116D01*
X189979501Y-64852123D01*
X189979500Y-64852135D01*
X182540423Y-64852135D01*
X182415694Y-64745606D01*
X182363656Y-64701161D01*
X182363653Y-64701160D01*
X182148859Y-64569533D01*
X181916110Y-64473126D01*
X181671151Y-64414317D01*
X181420000Y-64394551D01*
X181168848Y-64414317D01*
X180923889Y-64473126D01*
X180691140Y-64569533D01*
X180476346Y-64701160D01*
X180476343Y-64701161D01*
X180284776Y-64864776D01*
X180121161Y-65056343D01*
X180121160Y-65056346D01*
X179989533Y-65271140D01*
X179893126Y-65503889D01*
X179834317Y-65748848D01*
X179814551Y-66000000D01*
X178265449Y-66000000D01*
X178245683Y-65748852D01*
X178186873Y-65503889D01*
X178185281Y-65500045D01*
X178090466Y-65271140D01*
X177958839Y-65056346D01*
X177958838Y-65056343D01*
X177865019Y-64946496D01*
X177795224Y-64864776D01*
X177655694Y-64745606D01*
X177603656Y-64701161D01*
X177603653Y-64701160D01*
X177388859Y-64569533D01*
X177156110Y-64473126D01*
X176911151Y-64414317D01*
X176660000Y-64394551D01*
X176408848Y-64414317D01*
X176163889Y-64473126D01*
X175931140Y-64569533D01*
X175716346Y-64701160D01*
X175716343Y-64701161D01*
X175524776Y-64864776D01*
X175361161Y-65056343D01*
X175361160Y-65056346D01*
X175229533Y-65271140D01*
X175133126Y-65503889D01*
X175074317Y-65748848D01*
X175054551Y-66000000D01*
X175074317Y-66251151D01*
X175133126Y-66496110D01*
X175229533Y-66728859D01*
X175361160Y-66943653D01*
X175361161Y-66943656D01*
X175361164Y-66943659D01*
X175524776Y-67135224D01*
X175673066Y-67261875D01*
X175716343Y-67298838D01*
X175716346Y-67298839D01*
X175912304Y-67418923D01*
X175931141Y-67430466D01*
X175982953Y-67451927D01*
X176037355Y-67495765D01*
X176059421Y-67562059D01*
X176059500Y-67566487D01*
X176059500Y-67920800D01*
X176039815Y-67987839D01*
X175987011Y-68033594D01*
X175935500Y-68044800D01*
X172857170Y-68044800D01*
X172857154Y-68044799D01*
X172849558Y-68044799D01*
X172691443Y-68044799D01*
X172615079Y-68065261D01*
X172538714Y-68085723D01*
X172538709Y-68085726D01*
X172401790Y-68164775D01*
X172401782Y-68164781D01*
X164451084Y-76115480D01*
X164451080Y-76115484D01*
X164440552Y-76126011D01*
X164379227Y-76159493D01*
X164309536Y-76154506D01*
X164265194Y-76126007D01*
X164219141Y-76079954D01*
X164032739Y-75949435D01*
X164031327Y-75948620D01*
X164030829Y-75948098D01*
X164028300Y-75946327D01*
X164028656Y-75945818D01*
X163983113Y-75898051D01*
X163973556Y-75873330D01*
X163958763Y-75818119D01*
X163960426Y-75748269D01*
X163999590Y-75690407D01*
X164026135Y-75673645D01*
X164032734Y-75670568D01*
X164219139Y-75540047D01*
X164380047Y-75379139D01*
X164510568Y-75192734D01*
X164606739Y-74986496D01*
X164665635Y-74766692D01*
X164685468Y-74540000D01*
X164683413Y-74516516D01*
X164670631Y-74370416D01*
X164665635Y-74313308D01*
X164620043Y-74143156D01*
X164606741Y-74093511D01*
X164606740Y-74093510D01*
X164606739Y-74093504D01*
X164516391Y-73899754D01*
X164511517Y-73889301D01*
X164501025Y-73820223D01*
X164529545Y-73756439D01*
X164536205Y-73749228D01*
X166980520Y-71304916D01*
X167059577Y-71167984D01*
X167100501Y-71015257D01*
X167100501Y-70857142D01*
X167100501Y-70849547D01*
X167100500Y-70849529D01*
X167100500Y-67724499D01*
X167120185Y-67657460D01*
X167172989Y-67611705D01*
X167224500Y-67600499D01*
X167647871Y-67600499D01*
X167647872Y-67600499D01*
X167707483Y-67594091D01*
X167842331Y-67543796D01*
X167957546Y-67457546D01*
X168043796Y-67342331D01*
X168094091Y-67207483D01*
X168100500Y-67147873D01*
X168100499Y-64852128D01*
X168094091Y-64792517D01*
X168076594Y-64745606D01*
X168043797Y-64657671D01*
X168043793Y-64657664D01*
X167957547Y-64542455D01*
X167957544Y-64542452D01*
X167842335Y-64456206D01*
X167842328Y-64456202D01*
X167707482Y-64405908D01*
X167707483Y-64405908D01*
X167647883Y-64399501D01*
X167647881Y-64399500D01*
X167647873Y-64399500D01*
X167647864Y-64399500D01*
X165352129Y-64399500D01*
X165352123Y-64399501D01*
X165292516Y-64405908D01*
X165157671Y-64456202D01*
X165157664Y-64456206D01*
X165042455Y-64542452D01*
X165042452Y-64542455D01*
X164956206Y-64657664D01*
X164956202Y-64657671D01*
X164905908Y-64792517D01*
X164899501Y-64852116D01*
X164899501Y-64852123D01*
X164899500Y-64852135D01*
X164899500Y-67147870D01*
X164899501Y-67147876D01*
X164905908Y-67207483D01*
X164956202Y-67342328D01*
X164956206Y-67342335D01*
X165042452Y-67457544D01*
X165042455Y-67457547D01*
X165157664Y-67543793D01*
X165157671Y-67543797D01*
X165199977Y-67559576D01*
X165292517Y-67594091D01*
X165352127Y-67600500D01*
X165775500Y-67600499D01*
X165842539Y-67620183D01*
X165888294Y-67672987D01*
X165899500Y-67724499D01*
X165899500Y-70636102D01*
X165879815Y-70703141D01*
X165863181Y-70723783D01*
X164892180Y-71694784D01*
X164830857Y-71728269D01*
X164761165Y-71723285D01*
X164705232Y-71681413D01*
X164680815Y-71615949D01*
X164680499Y-71607103D01*
X164680499Y-71152129D01*
X164680498Y-71152123D01*
X164674091Y-71092516D01*
X164623797Y-70957671D01*
X164623793Y-70957664D01*
X164537547Y-70842455D01*
X164537544Y-70842452D01*
X164422335Y-70756206D01*
X164422328Y-70756202D01*
X164287482Y-70705908D01*
X164287483Y-70705908D01*
X164227883Y-70699501D01*
X164227881Y-70699500D01*
X164227873Y-70699500D01*
X164227864Y-70699500D01*
X162532129Y-70699500D01*
X162532123Y-70699501D01*
X162472516Y-70705908D01*
X162337671Y-70756202D01*
X162337665Y-70756205D01*
X162313748Y-70774110D01*
X162248284Y-70798526D01*
X162180011Y-70783674D01*
X162151758Y-70762523D01*
X160751314Y-69362079D01*
X160717829Y-69300756D01*
X160719730Y-69240460D01*
X160725115Y-69221536D01*
X160745643Y-69000000D01*
X160732709Y-68860423D01*
X160725115Y-68778464D01*
X160725114Y-68778462D01*
X160708460Y-68719930D01*
X160664229Y-68564472D01*
X160664224Y-68564461D01*
X160565061Y-68365316D01*
X160565056Y-68365308D01*
X160430979Y-68187761D01*
X160266562Y-68037876D01*
X160266560Y-68037874D01*
X160077404Y-67920754D01*
X160077398Y-67920752D01*
X159869940Y-67840382D01*
X159651243Y-67799500D01*
X159428757Y-67799500D01*
X159210060Y-67840382D01*
X159102069Y-67882218D01*
X159002601Y-67920752D01*
X159002595Y-67920754D01*
X158813439Y-68037874D01*
X158813437Y-68037876D01*
X158649020Y-68187761D01*
X158514943Y-68365308D01*
X158514938Y-68365316D01*
X158415775Y-68564461D01*
X158415769Y-68564476D01*
X158354885Y-68778462D01*
X158354884Y-68778464D01*
X158334357Y-68999999D01*
X158334357Y-69000000D01*
X158354848Y-69221139D01*
X158341433Y-69289709D01*
X158293076Y-69340140D01*
X158225130Y-69356423D01*
X158159167Y-69333385D01*
X158143696Y-69320261D01*
X157535819Y-68712384D01*
X157502334Y-68651061D01*
X157499500Y-68624703D01*
X157499500Y-66369645D01*
X157499500Y-66369643D01*
X157458577Y-66216916D01*
X157426212Y-66160858D01*
X157379524Y-66079990D01*
X157379521Y-66079986D01*
X157379520Y-66079984D01*
X157267716Y-65968180D01*
X157267715Y-65968179D01*
X157263385Y-65963849D01*
X157263374Y-65963839D01*
X154011716Y-62712181D01*
X153978231Y-62650858D01*
X153983215Y-62581166D01*
X154025087Y-62525233D01*
X154090551Y-62500816D01*
X154099397Y-62500500D01*
X202375500Y-62500500D01*
X202442539Y-62520185D01*
X202488294Y-62572989D01*
X202499500Y-62624500D01*
X202499500Y-92875500D01*
X202479815Y-92942539D01*
X202427011Y-92988294D01*
X202375500Y-92999500D01*
X128624500Y-92999500D01*
X128557461Y-92979815D01*
X128511706Y-92927011D01*
X128500500Y-92875500D01*
X128500500Y-77499995D01*
X134194953Y-77499995D01*
X134194953Y-77500004D01*
X134215113Y-77769026D01*
X134215113Y-77769028D01*
X134275142Y-78032033D01*
X134275148Y-78032052D01*
X134373709Y-78283181D01*
X134373708Y-78283181D01*
X134508602Y-78516822D01*
X134562294Y-78584151D01*
X135284152Y-77862292D01*
X135291049Y-77878942D01*
X135378599Y-78009970D01*
X135490030Y-78121401D01*
X135621058Y-78208951D01*
X135637705Y-78215846D01*
X134914848Y-78938702D01*
X135097483Y-79063220D01*
X135097485Y-79063221D01*
X135340539Y-79180269D01*
X135340537Y-79180269D01*
X135598337Y-79259790D01*
X135598343Y-79259792D01*
X135865101Y-79299999D01*
X135865110Y-79300000D01*
X136134890Y-79300000D01*
X136134898Y-79299999D01*
X136401656Y-79259792D01*
X136401662Y-79259790D01*
X136659461Y-79180269D01*
X136902521Y-79063218D01*
X137085150Y-78938702D01*
X136362294Y-78215846D01*
X136378942Y-78208951D01*
X136509970Y-78121401D01*
X136621401Y-78009970D01*
X136708951Y-77878942D01*
X136715846Y-77862294D01*
X137437703Y-78584151D01*
X137437704Y-78584150D01*
X137491393Y-78516828D01*
X137491400Y-78516817D01*
X137626290Y-78283181D01*
X137724851Y-78032052D01*
X137724857Y-78032033D01*
X137784886Y-77769028D01*
X137784886Y-77769026D01*
X137805047Y-77500004D01*
X137805047Y-77499995D01*
X137784886Y-77230973D01*
X137784886Y-77230971D01*
X137724857Y-76967966D01*
X137724851Y-76967947D01*
X137626290Y-76716818D01*
X137626291Y-76716818D01*
X137491397Y-76483177D01*
X137437704Y-76415847D01*
X136715846Y-77137705D01*
X136708951Y-77121058D01*
X136621401Y-76990030D01*
X136509970Y-76878599D01*
X136378942Y-76791049D01*
X136362294Y-76784153D01*
X137085150Y-76061296D01*
X136902517Y-75936779D01*
X136902516Y-75936778D01*
X136659460Y-75819730D01*
X136659462Y-75819730D01*
X136401662Y-75740209D01*
X136401656Y-75740207D01*
X136134898Y-75700000D01*
X135865101Y-75700000D01*
X135598343Y-75740207D01*
X135598337Y-75740209D01*
X135340538Y-75819730D01*
X135097485Y-75936778D01*
X135097476Y-75936783D01*
X134914848Y-76061296D01*
X135637705Y-76784153D01*
X135621058Y-76791049D01*
X135490030Y-76878599D01*
X135378599Y-76990030D01*
X135291049Y-77121058D01*
X135284153Y-77137706D01*
X134562295Y-76415848D01*
X134508600Y-76483180D01*
X134373709Y-76716818D01*
X134275148Y-76967947D01*
X134275142Y-76967966D01*
X134215113Y-77230971D01*
X134215113Y-77230973D01*
X134194953Y-77499995D01*
X128500500Y-77499995D01*
X128500500Y-70006879D01*
X144766672Y-70006879D01*
X144766672Y-70006880D01*
X144882821Y-70078797D01*
X144882822Y-70078798D01*
X145090195Y-70159134D01*
X145308807Y-70200000D01*
X145531193Y-70200000D01*
X145749809Y-70159133D01*
X145957168Y-70078801D01*
X145957181Y-70078795D01*
X146073326Y-70006879D01*
X145420001Y-69353553D01*
X145420000Y-69353553D01*
X144766672Y-70006879D01*
X128500500Y-70006879D01*
X128500500Y-68999999D01*
X144214859Y-68999999D01*
X144214859Y-69000000D01*
X144235378Y-69221439D01*
X144296240Y-69435350D01*
X144395369Y-69634428D01*
X144411137Y-69655308D01*
X144411138Y-69655308D01*
X145066447Y-69000000D01*
X145020369Y-68953922D01*
X145070000Y-68953922D01*
X145070000Y-69046078D01*
X145093852Y-69135095D01*
X145139930Y-69214905D01*
X145205095Y-69280070D01*
X145284905Y-69326148D01*
X145373922Y-69350000D01*
X145466078Y-69350000D01*
X145555095Y-69326148D01*
X145634905Y-69280070D01*
X145700070Y-69214905D01*
X145746148Y-69135095D01*
X145770000Y-69046078D01*
X145770000Y-68999999D01*
X145773553Y-68999999D01*
X145773553Y-69000000D01*
X146428861Y-69655308D01*
X146444631Y-69634425D01*
X146444633Y-69634422D01*
X146543759Y-69435350D01*
X146604621Y-69221439D01*
X146625141Y-69000000D01*
X146625141Y-68999999D01*
X149294357Y-68999999D01*
X149294357Y-69000000D01*
X149314884Y-69221535D01*
X149314885Y-69221537D01*
X149375769Y-69435523D01*
X149375775Y-69435538D01*
X149474938Y-69634683D01*
X149474943Y-69634691D01*
X149609020Y-69812238D01*
X149773437Y-69962123D01*
X149773439Y-69962125D01*
X149962595Y-70079245D01*
X149962596Y-70079245D01*
X149962599Y-70079247D01*
X150170060Y-70159618D01*
X150388757Y-70200500D01*
X150388759Y-70200500D01*
X150611241Y-70200500D01*
X150611243Y-70200500D01*
X150829940Y-70159618D01*
X151037401Y-70079247D01*
X151226562Y-69962124D01*
X151390981Y-69812236D01*
X151525058Y-69634689D01*
X151624229Y-69435528D01*
X151685115Y-69221536D01*
X151705643Y-69000000D01*
X151692709Y-68860423D01*
X151685115Y-68778464D01*
X151685114Y-68778462D01*
X151668460Y-68719930D01*
X151624229Y-68564472D01*
X151624224Y-68564461D01*
X151525061Y-68365316D01*
X151525056Y-68365308D01*
X151390979Y-68187761D01*
X151226562Y-68037876D01*
X151226560Y-68037874D01*
X151037404Y-67920754D01*
X151037398Y-67920752D01*
X150829940Y-67840382D01*
X150611243Y-67799500D01*
X150388757Y-67799500D01*
X150170060Y-67840382D01*
X150062069Y-67882218D01*
X149962601Y-67920752D01*
X149962595Y-67920754D01*
X149773439Y-68037874D01*
X149773437Y-68037876D01*
X149609020Y-68187761D01*
X149474943Y-68365308D01*
X149474938Y-68365316D01*
X149375775Y-68564461D01*
X149375769Y-68564476D01*
X149314885Y-68778462D01*
X149314884Y-68778464D01*
X149294357Y-68999999D01*
X146625141Y-68999999D01*
X146604621Y-68778560D01*
X146543759Y-68564649D01*
X146444635Y-68365580D01*
X146444630Y-68365572D01*
X146428860Y-68344690D01*
X145773553Y-68999999D01*
X145770000Y-68999999D01*
X145770000Y-68953922D01*
X145746148Y-68864905D01*
X145700070Y-68785095D01*
X145634905Y-68719930D01*
X145555095Y-68673852D01*
X145466078Y-68650000D01*
X145373922Y-68650000D01*
X145284905Y-68673852D01*
X145205095Y-68719930D01*
X145139930Y-68785095D01*
X145093852Y-68864905D01*
X145070000Y-68953922D01*
X145020369Y-68953922D01*
X144411138Y-68344691D01*
X144411137Y-68344691D01*
X144395368Y-68365574D01*
X144296240Y-68564649D01*
X144235378Y-68778560D01*
X144214859Y-68999999D01*
X128500500Y-68999999D01*
X128500500Y-66152155D01*
X133200000Y-66152155D01*
X133200000Y-66750000D01*
X134184314Y-66750000D01*
X134179920Y-66754394D01*
X134127259Y-66845606D01*
X134100000Y-66947339D01*
X134100000Y-67052661D01*
X134127259Y-67154394D01*
X134179920Y-67245606D01*
X134184314Y-67250000D01*
X133200000Y-67250000D01*
X133200000Y-67847844D01*
X133206401Y-67907372D01*
X133206403Y-67907379D01*
X133256645Y-68042086D01*
X133256649Y-68042093D01*
X133342809Y-68157187D01*
X133342812Y-68157190D01*
X133457906Y-68243350D01*
X133457913Y-68243354D01*
X133592620Y-68293596D01*
X133592627Y-68293598D01*
X133652155Y-68299999D01*
X133652172Y-68300000D01*
X134250000Y-68300000D01*
X134250000Y-67315686D01*
X134254394Y-67320080D01*
X134345606Y-67372741D01*
X134447339Y-67400000D01*
X134552661Y-67400000D01*
X134654394Y-67372741D01*
X134745606Y-67320080D01*
X134750000Y-67315686D01*
X134750000Y-68300000D01*
X135347828Y-68300000D01*
X135347844Y-68299999D01*
X135407372Y-68293598D01*
X135407379Y-68293596D01*
X135542086Y-68243354D01*
X135542093Y-68243350D01*
X135657187Y-68157190D01*
X135657190Y-68157187D01*
X135743350Y-68042093D01*
X135743354Y-68042086D01*
X135793596Y-67907379D01*
X135793598Y-67907372D01*
X135799999Y-67847844D01*
X135800000Y-67847827D01*
X135800000Y-67250000D01*
X134815686Y-67250000D01*
X134820080Y-67245606D01*
X134872741Y-67154394D01*
X134900000Y-67052661D01*
X134900000Y-66947339D01*
X134872741Y-66845606D01*
X134820080Y-66754394D01*
X134815686Y-66750000D01*
X135800000Y-66750000D01*
X135800000Y-66152172D01*
X135799999Y-66152155D01*
X135793598Y-66092627D01*
X135793596Y-66092620D01*
X135743354Y-65957913D01*
X135743350Y-65957906D01*
X135657190Y-65842812D01*
X135657187Y-65842809D01*
X135542093Y-65756649D01*
X135542086Y-65756645D01*
X135407379Y-65706403D01*
X135407372Y-65706401D01*
X135347844Y-65700000D01*
X134750000Y-65700000D01*
X134750000Y-66684314D01*
X134745606Y-66679920D01*
X134654394Y-66627259D01*
X134552661Y-66600000D01*
X134447339Y-66600000D01*
X134345606Y-66627259D01*
X134254394Y-66679920D01*
X134250000Y-66684314D01*
X134250000Y-65700000D01*
X133652155Y-65700000D01*
X133592627Y-65706401D01*
X133592620Y-65706403D01*
X133457913Y-65756645D01*
X133457906Y-65756649D01*
X133342812Y-65842809D01*
X133342809Y-65842812D01*
X133256649Y-65957906D01*
X133256645Y-65957913D01*
X133206403Y-66092620D01*
X133206401Y-66092627D01*
X133200000Y-66152155D01*
X128500500Y-66152155D01*
X128500500Y-62624500D01*
X128520185Y-62557461D01*
X128572989Y-62511706D01*
X128624500Y-62500500D01*
X145600902Y-62500500D01*
X145667941Y-62520185D01*
G37*
%TD.AperFunction*%
%TA.AperFunction,Conductor*%
G36*
X149439395Y-77557952D02*
G01*
X149495328Y-77599824D01*
X149507061Y-77618862D01*
X149514942Y-77634689D01*
X149649020Y-77812238D01*
X149813433Y-77962120D01*
X149813435Y-77962122D01*
X149813437Y-77962123D01*
X149813438Y-77962124D01*
X149840777Y-77979051D01*
X149887411Y-78031076D01*
X149899499Y-78084477D01*
X149899499Y-78130746D01*
X149899500Y-78130759D01*
X149899500Y-79890754D01*
X149879815Y-79957793D01*
X149840778Y-79996181D01*
X149773436Y-80037877D01*
X149609020Y-80187761D01*
X149474943Y-80365308D01*
X149474938Y-80365316D01*
X149375775Y-80564461D01*
X149375769Y-80564476D01*
X149314885Y-80778462D01*
X149314884Y-80778464D01*
X149294357Y-80999999D01*
X149294357Y-81000000D01*
X149314884Y-81221535D01*
X149314885Y-81221537D01*
X149375769Y-81435523D01*
X149375775Y-81435538D01*
X149474938Y-81634683D01*
X149474943Y-81634691D01*
X149609020Y-81812238D01*
X149773437Y-81962123D01*
X149773439Y-81962125D01*
X149962595Y-82079245D01*
X149962596Y-82079245D01*
X149962599Y-82079247D01*
X150170060Y-82159618D01*
X150388757Y-82200500D01*
X150388759Y-82200500D01*
X150611241Y-82200500D01*
X150611243Y-82200500D01*
X150829940Y-82159618D01*
X151037401Y-82079247D01*
X151226562Y-81962124D01*
X151390981Y-81812236D01*
X151525058Y-81634689D01*
X151584168Y-81515981D01*
X151631670Y-81464744D01*
X151699333Y-81447322D01*
X151765674Y-81469247D01*
X151807550Y-81518847D01*
X151869864Y-81652480D01*
X151920974Y-81725472D01*
X152600000Y-81046446D01*
X152600000Y-81052661D01*
X152627259Y-81154394D01*
X152679920Y-81245606D01*
X152754394Y-81320080D01*
X152845606Y-81372741D01*
X152947339Y-81400000D01*
X152953553Y-81400000D01*
X152274526Y-82079025D01*
X152347513Y-82130132D01*
X152347521Y-82130136D01*
X152553668Y-82226264D01*
X152553682Y-82226269D01*
X152773389Y-82285139D01*
X152773400Y-82285141D01*
X152999997Y-82304965D01*
X153039559Y-82301504D01*
X153108059Y-82315269D01*
X153158243Y-82363884D01*
X153174178Y-82431912D01*
X153150804Y-82497756D01*
X153138051Y-82512712D01*
X153032385Y-82618380D01*
X152971062Y-82651866D01*
X152944703Y-82654700D01*
X145750097Y-82654700D01*
X145683058Y-82635015D01*
X145662416Y-82618381D01*
X145455629Y-82411594D01*
X145422144Y-82350271D01*
X145427128Y-82280579D01*
X145469000Y-82224646D01*
X145525834Y-82202765D01*
X145525608Y-82201553D01*
X145531241Y-82200500D01*
X145531243Y-82200500D01*
X145749940Y-82159618D01*
X145957401Y-82079247D01*
X146146562Y-81962124D01*
X146310981Y-81812236D01*
X146445058Y-81634689D01*
X146544229Y-81435528D01*
X146605115Y-81221536D01*
X146625643Y-81000000D01*
X146617682Y-80914091D01*
X146605115Y-80778464D01*
X146605114Y-80778461D01*
X146604198Y-80775243D01*
X146588606Y-80720442D01*
X146544231Y-80564476D01*
X146544228Y-80564470D01*
X146512904Y-80501563D01*
X146500642Y-80432778D01*
X146527515Y-80368283D01*
X146536213Y-80358620D01*
X149308382Y-77586451D01*
X149369703Y-77552968D01*
X149439395Y-77557952D01*
G37*
%TD.AperFunction*%
%TA.AperFunction,Conductor*%
G36*
X153389988Y-73607359D02*
G01*
X153445608Y-73648814D01*
X153569020Y-73812238D01*
X153733433Y-73962120D01*
X153733435Y-73962121D01*
X153733438Y-73962124D01*
X153800778Y-74003818D01*
X153847412Y-74055843D01*
X153859500Y-74109244D01*
X153859500Y-75890754D01*
X153839815Y-75957793D01*
X153800778Y-75996181D01*
X153733436Y-76037877D01*
X153569020Y-76187761D01*
X153434943Y-76365308D01*
X153434938Y-76365316D01*
X153335775Y-76564461D01*
X153335769Y-76564476D01*
X153274885Y-76778462D01*
X153274884Y-76778464D01*
X153254357Y-76999999D01*
X153254357Y-77000000D01*
X153274884Y-77221535D01*
X153274885Y-77221537D01*
X153335769Y-77435523D01*
X153335775Y-77435538D01*
X153434938Y-77634683D01*
X153434943Y-77634691D01*
X153569020Y-77812238D01*
X153733437Y-77962123D01*
X153733439Y-77962125D01*
X153922595Y-78079245D01*
X153922596Y-78079245D01*
X153922599Y-78079247D01*
X154130060Y-78159618D01*
X154348757Y-78200500D01*
X154348759Y-78200500D01*
X154571241Y-78200500D01*
X154571243Y-78200500D01*
X154789940Y-78159618D01*
X154997401Y-78079247D01*
X155186562Y-77962124D01*
X155350981Y-77812236D01*
X155473667Y-77649772D01*
X155529776Y-77608137D01*
X155572621Y-77600500D01*
X156449903Y-77600500D01*
X156516942Y-77620185D01*
X156537584Y-77636819D01*
X158388051Y-79487286D01*
X158421536Y-79548609D01*
X158416552Y-79618301D01*
X158374680Y-79674234D01*
X158309216Y-79698651D01*
X158289563Y-79698495D01*
X158250002Y-79695034D01*
X158249998Y-79695034D01*
X158023400Y-79714858D01*
X158023389Y-79714860D01*
X157803682Y-79773730D01*
X157803673Y-79773734D01*
X157597516Y-79869866D01*
X157597512Y-79869868D01*
X157524526Y-79920973D01*
X157524526Y-79920974D01*
X158203553Y-80600000D01*
X158197339Y-80600000D01*
X158095606Y-80627259D01*
X158004394Y-80679920D01*
X157929920Y-80754394D01*
X157877259Y-80845606D01*
X157850000Y-80947339D01*
X157850000Y-80953552D01*
X157170974Y-80274526D01*
X157170973Y-80274526D01*
X157119868Y-80347512D01*
X157119866Y-80347516D01*
X157023734Y-80553673D01*
X157023731Y-80553680D01*
X156995033Y-80660782D01*
X156958667Y-80720442D01*
X156895820Y-80750971D01*
X156826445Y-80742676D01*
X156772567Y-80698190D01*
X156755483Y-80660780D01*
X156726742Y-80553513D01*
X156726738Y-80553502D01*
X156710772Y-80519263D01*
X156630568Y-80347266D01*
X156500047Y-80160861D01*
X156500045Y-80160858D01*
X156339141Y-79999954D01*
X156152734Y-79869432D01*
X156152732Y-79869431D01*
X155946497Y-79773261D01*
X155946488Y-79773258D01*
X155726697Y-79714366D01*
X155726693Y-79714365D01*
X155726692Y-79714365D01*
X155726691Y-79714364D01*
X155726686Y-79714364D01*
X155500002Y-79694532D01*
X155499998Y-79694532D01*
X155273313Y-79714364D01*
X155273302Y-79714366D01*
X155053511Y-79773258D01*
X155053502Y-79773261D01*
X154847267Y-79869431D01*
X154847265Y-79869432D01*
X154660858Y-79999954D01*
X154499954Y-80160858D01*
X154369432Y-80347265D01*
X154369429Y-80347270D01*
X154362104Y-80362979D01*
X154315929Y-80415417D01*
X154248735Y-80434566D01*
X154181855Y-80414347D01*
X154137341Y-80362973D01*
X154130133Y-80347515D01*
X154130132Y-80347513D01*
X154079025Y-80274526D01*
X153400000Y-80953552D01*
X153400000Y-80947339D01*
X153372741Y-80845606D01*
X153320080Y-80754394D01*
X153245606Y-80679920D01*
X153154394Y-80627259D01*
X153052661Y-80600000D01*
X153046448Y-80600000D01*
X153725472Y-79920974D01*
X153652478Y-79869863D01*
X153446331Y-79773735D01*
X153446317Y-79773730D01*
X153226610Y-79714860D01*
X153226599Y-79714858D01*
X153000002Y-79695034D01*
X152999998Y-79695034D01*
X152773400Y-79714858D01*
X152773389Y-79714860D01*
X152553682Y-79773730D01*
X152553673Y-79773734D01*
X152347516Y-79869866D01*
X152347512Y-79869868D01*
X152274526Y-79920973D01*
X152274526Y-79920974D01*
X152953553Y-80600000D01*
X152947339Y-80600000D01*
X152845606Y-80627259D01*
X152754394Y-80679920D01*
X152679920Y-80754394D01*
X152627259Y-80845606D01*
X152600000Y-80947339D01*
X152600000Y-80953552D01*
X151920974Y-80274526D01*
X151920973Y-80274526D01*
X151869868Y-80347512D01*
X151807550Y-80481153D01*
X151761377Y-80533591D01*
X151694183Y-80552743D01*
X151627302Y-80532527D01*
X151584168Y-80484019D01*
X151525061Y-80365316D01*
X151525056Y-80365308D01*
X151390979Y-80187761D01*
X151226563Y-80037877D01*
X151226562Y-80037876D01*
X151159221Y-79996180D01*
X151112587Y-79944153D01*
X151100500Y-79890754D01*
X151100500Y-78246365D01*
X151104725Y-78214271D01*
X151108415Y-78200500D01*
X151113134Y-78182889D01*
X151140501Y-78080757D01*
X151140501Y-78080754D01*
X151140818Y-78079571D01*
X151177183Y-78019910D01*
X151195312Y-78006239D01*
X151266562Y-77962124D01*
X151357808Y-77878942D01*
X151430979Y-77812238D01*
X151463612Y-77769026D01*
X151565058Y-77634689D01*
X151664229Y-77435528D01*
X151725115Y-77221536D01*
X151745643Y-77000000D01*
X151741674Y-76957172D01*
X151725115Y-76778464D01*
X151725114Y-76778462D01*
X151720952Y-76763835D01*
X151664229Y-76564472D01*
X151641825Y-76519479D01*
X151565061Y-76365316D01*
X151565056Y-76365308D01*
X151430979Y-76187761D01*
X151266562Y-76037876D01*
X151266560Y-76037874D01*
X151146690Y-75963655D01*
X151100054Y-75911628D01*
X151088950Y-75842646D01*
X151116903Y-75778612D01*
X151124275Y-75770558D01*
X153258975Y-73635858D01*
X153320296Y-73602375D01*
X153389988Y-73607359D01*
G37*
%TD.AperFunction*%
%TA.AperFunction,Conductor*%
G36*
X176426942Y-69265485D02*
G01*
X176447584Y-69282119D01*
X180635457Y-73469992D01*
X180668942Y-73531315D01*
X180663958Y-73601007D01*
X180635459Y-73645353D01*
X180579952Y-73700861D01*
X180449432Y-73887265D01*
X180449431Y-73887267D01*
X180353261Y-74093502D01*
X180353258Y-74093511D01*
X180294366Y-74313302D01*
X180294364Y-74313313D01*
X180274532Y-74539998D01*
X180274532Y-74540001D01*
X180294364Y-74766686D01*
X180294366Y-74766697D01*
X180353258Y-74986488D01*
X180353261Y-74986497D01*
X180449431Y-75192732D01*
X180449432Y-75192734D01*
X180579954Y-75379141D01*
X180740858Y-75540045D01*
X180740861Y-75540047D01*
X180927266Y-75670568D01*
X180927278Y-75670573D01*
X180928661Y-75671372D01*
X180929155Y-75671890D01*
X180931701Y-75673673D01*
X180931342Y-75674184D01*
X180976880Y-75721935D01*
X180986441Y-75746664D01*
X181001367Y-75802369D01*
X180999705Y-75872217D01*
X180960543Y-75930080D01*
X180934003Y-75946841D01*
X180927519Y-75949864D01*
X180741179Y-76080342D01*
X180580342Y-76241179D01*
X180449865Y-76427517D01*
X180353734Y-76633673D01*
X180353730Y-76633682D01*
X180301127Y-76829999D01*
X180301128Y-76830000D01*
X181264314Y-76830000D01*
X181259920Y-76834394D01*
X181207259Y-76925606D01*
X181180000Y-77027339D01*
X181180000Y-77132661D01*
X181207259Y-77234394D01*
X181259920Y-77325606D01*
X181264314Y-77330000D01*
X180301128Y-77330000D01*
X180353730Y-77526317D01*
X180353734Y-77526326D01*
X180449865Y-77732482D01*
X180580342Y-77918820D01*
X180741182Y-78079660D01*
X180766219Y-78097191D01*
X180809844Y-78151768D01*
X180817038Y-78221266D01*
X180785515Y-78283621D01*
X180725285Y-78319035D01*
X180708352Y-78322055D01*
X180672519Y-78325907D01*
X180537671Y-78376202D01*
X180537664Y-78376206D01*
X180422455Y-78462452D01*
X180422452Y-78462455D01*
X180336206Y-78577664D01*
X180336202Y-78577671D01*
X180285908Y-78712517D01*
X180279501Y-78772116D01*
X180279500Y-78772135D01*
X180279500Y-80440803D01*
X180259815Y-80507842D01*
X180207011Y-80553597D01*
X180137853Y-80563541D01*
X180074297Y-80534516D01*
X180067832Y-80528496D01*
X175016497Y-75477162D01*
X174983013Y-75415840D01*
X174987997Y-75346148D01*
X175002600Y-75318366D01*
X175090568Y-75192734D01*
X175186739Y-74986496D01*
X175245635Y-74766692D01*
X175265468Y-74540000D01*
X175263413Y-74516516D01*
X175250631Y-74370416D01*
X175245635Y-74313308D01*
X175200043Y-74143156D01*
X175186741Y-74093511D01*
X175186738Y-74093502D01*
X175152421Y-74019910D01*
X175090568Y-73887266D01*
X174960047Y-73700861D01*
X174960045Y-73700858D01*
X174799141Y-73539954D01*
X174612734Y-73409432D01*
X174612728Y-73409429D01*
X174554725Y-73382382D01*
X174502285Y-73336210D01*
X174483133Y-73269017D01*
X174503348Y-73202135D01*
X174554725Y-73157618D01*
X174612734Y-73130568D01*
X174799139Y-73000047D01*
X174960047Y-72839139D01*
X175090568Y-72652734D01*
X175186739Y-72446496D01*
X175245635Y-72226692D01*
X175264415Y-72012039D01*
X175265468Y-72000001D01*
X175265468Y-71999998D01*
X175253602Y-71864374D01*
X175245635Y-71773308D01*
X175186739Y-71553504D01*
X175090568Y-71347266D01*
X174960047Y-71160861D01*
X174960045Y-71160858D01*
X174799141Y-70999954D01*
X174612734Y-70869432D01*
X174612732Y-70869431D01*
X174406497Y-70773261D01*
X174406488Y-70773258D01*
X174186697Y-70714366D01*
X174186693Y-70714365D01*
X174186692Y-70714365D01*
X174186691Y-70714364D01*
X174186686Y-70714364D01*
X173960002Y-70694532D01*
X173959998Y-70694532D01*
X173733313Y-70714364D01*
X173733302Y-70714366D01*
X173513511Y-70773258D01*
X173513502Y-70773261D01*
X173307267Y-70869431D01*
X173307265Y-70869432D01*
X173120858Y-70999954D01*
X172959954Y-71160858D01*
X172829432Y-71347265D01*
X172829431Y-71347267D01*
X172733261Y-71553502D01*
X172733258Y-71553511D01*
X172674366Y-71773302D01*
X172674364Y-71773313D01*
X172654532Y-71999998D01*
X172654532Y-72000001D01*
X172674364Y-72226686D01*
X172674366Y-72226697D01*
X172733258Y-72446488D01*
X172733261Y-72446497D01*
X172829431Y-72652732D01*
X172829432Y-72652734D01*
X172959954Y-72839141D01*
X173120858Y-73000045D01*
X173120861Y-73000047D01*
X173307266Y-73130568D01*
X173365275Y-73157618D01*
X173417714Y-73203791D01*
X173436866Y-73270984D01*
X173416650Y-73337865D01*
X173365275Y-73382382D01*
X173307267Y-73409431D01*
X173307265Y-73409432D01*
X173120858Y-73539954D01*
X172959954Y-73700858D01*
X172829432Y-73887265D01*
X172829431Y-73887267D01*
X172733261Y-74093502D01*
X172733258Y-74093511D01*
X172674366Y-74313302D01*
X172674364Y-74313313D01*
X172654532Y-74539998D01*
X172654532Y-74540001D01*
X172674364Y-74766686D01*
X172674366Y-74766697D01*
X172733258Y-74986488D01*
X172733261Y-74986497D01*
X172827605Y-75188817D01*
X172829432Y-75192734D01*
X172877676Y-75261635D01*
X172897544Y-75290009D01*
X172919871Y-75356216D01*
X172902860Y-75423983D01*
X172883650Y-75448813D01*
X172133506Y-76198957D01*
X172072183Y-76232442D01*
X172002491Y-76227458D01*
X171958144Y-76198957D01*
X171839141Y-76079954D01*
X171652734Y-75949432D01*
X171652728Y-75949429D01*
X171594725Y-75922382D01*
X171542285Y-75876210D01*
X171523133Y-75809017D01*
X171543348Y-75742135D01*
X171594725Y-75697618D01*
X171652734Y-75670568D01*
X171839139Y-75540047D01*
X172000047Y-75379139D01*
X172130568Y-75192734D01*
X172226739Y-74986496D01*
X172285635Y-74766692D01*
X172305468Y-74540000D01*
X172303413Y-74516516D01*
X172290631Y-74370416D01*
X172285635Y-74313308D01*
X172240043Y-74143156D01*
X172226741Y-74093511D01*
X172226738Y-74093502D01*
X172192421Y-74019910D01*
X172130568Y-73887266D01*
X172000047Y-73700861D01*
X172000045Y-73700858D01*
X171839140Y-73539953D01*
X171653377Y-73409881D01*
X171609752Y-73355304D01*
X171600500Y-73308306D01*
X171600500Y-73231692D01*
X171620185Y-73164653D01*
X171653374Y-73130119D01*
X171839139Y-73000047D01*
X172000047Y-72839139D01*
X172130568Y-72652734D01*
X172226739Y-72446496D01*
X172285635Y-72226692D01*
X172304415Y-72012039D01*
X172305468Y-72000001D01*
X172305468Y-71999998D01*
X172293602Y-71864374D01*
X172285635Y-71773308D01*
X172226739Y-71553504D01*
X172130568Y-71347266D01*
X172000047Y-71160861D01*
X172000045Y-71160858D01*
X171839141Y-70999954D01*
X171652731Y-70869430D01*
X171652730Y-70869429D01*
X171637870Y-70862500D01*
X171585431Y-70816326D01*
X171566281Y-70749132D01*
X171586498Y-70682252D01*
X171602591Y-70662443D01*
X172982917Y-69282119D01*
X173044240Y-69248634D01*
X173070598Y-69245800D01*
X176359903Y-69245800D01*
X176426942Y-69265485D01*
G37*
%TD.AperFunction*%
%TA.AperFunction,Conductor*%
G36*
X190646680Y-77200185D02*
G01*
X190692435Y-77252989D01*
X190703403Y-77312185D01*
X190701200Y-77347647D01*
X191411415Y-78057861D01*
X191326306Y-78080667D01*
X191223694Y-78139910D01*
X191139910Y-78223694D01*
X191080667Y-78326306D01*
X191057861Y-78411415D01*
X190396818Y-77750372D01*
X190363333Y-77689049D01*
X190360499Y-77662691D01*
X190360499Y-77552129D01*
X190360498Y-77552123D01*
X190360497Y-77552116D01*
X190354091Y-77492517D01*
X190354091Y-77492516D01*
X190300697Y-77349359D01*
X190303791Y-77348204D01*
X190292363Y-77295638D01*
X190316789Y-77230177D01*
X190372728Y-77188313D01*
X190416046Y-77180500D01*
X190579641Y-77180500D01*
X190646680Y-77200185D01*
G37*
%TD.AperFunction*%
%TD*%
M02*
